<?xml version="1.0" encoding="UTF-8"?>
<svg version="1.1" xmlns="http://www.w3.org/2000/svg" width="800" height="800">
<path d="M0 0 C1.02336067 -0.00205263 2.04672134 -0.00410527 3.10109293 -0.0062201 C6.54030521 -0.01188774 9.97947741 -0.01043313 13.41869354 -0.00901413 C15.90542443 -0.0115979 18.3921549 -0.01461109 20.87888479 -0.01801753 C27.00301039 -0.02524272 33.12712343 -0.02779009 39.25125279 -0.02834659 C46.58745891 -0.0292612 53.92365699 -0.03593165 61.25985964 -0.04269341 C78.99073286 -0.058746 96.7216052 -0.06465591 114.45248437 -0.06944216 C122.84238092 -0.0717789 131.23227679 -0.07538165 139.62217281 -0.07913754 C168.34840533 -0.09197255 197.07463747 -0.10269165 225.8008728 -0.10614014 C227.60382019 -0.10636177 229.40676759 -0.10658355 231.20971498 -0.10680549 C233.0169877 -0.10702613 234.82426042 -0.10724661 236.63153315 -0.10746694 C240.25716051 -0.10790949 243.88278786 -0.1083566 247.50841522 -0.10880661 C248.40735862 -0.108916 249.30630202 -0.10902539 250.23248612 -0.1091381 C279.37596245 -0.11276814 308.5194139 -0.12868645 337.6628807 -0.15199697 C368.48363285 -0.17660396 399.30437078 -0.19031338 430.12513304 -0.19150805 C433.509806 -0.19167951 436.89447896 -0.19189493 440.27915192 -0.19214249 C441.11253796 -0.19219826 441.945924 -0.19225402 442.80456417 -0.19231148 C456.20477303 -0.19346119 469.60495632 -0.20447634 483.00515655 -0.21902954 C496.4795463 -0.23341003 509.95390333 -0.23662277 523.42829865 -0.22858956 C531.4280898 -0.22414059 539.42777519 -0.22796452 547.4275524 -0.24382807 C553.40898989 -0.25475763 559.39030727 -0.24991408 565.37174934 -0.2390562 C567.78565517 -0.23709886 570.19957164 -0.2401793 572.61346251 -0.24890056 C585.04520279 -0.29096024 596.67517811 -0.03702513 608.74767303 3.13142776 C609.51912234 3.31283774 610.29057164 3.49424772 611.0853982 3.68115497 C627.19831305 7.6031592 641.49895415 16.10758077 653.74767303 27.13142776 C654.53400116 27.78756058 655.32032928 28.44369339 656.13048553 29.11970901 C676.14939251 46.05095407 688.71549949 72.28706183 691.74767303 98.13142776 C691.88723043 101.54933149 691.88549622 104.96335753 691.8791008 108.38375473 C691.88217975 109.91879573 691.88217975 109.91879573 691.8853209 111.48484766 C691.89098854 114.92405994 691.88953393 118.36323214 691.88811493 121.80244827 C691.8906987 124.28917916 691.89371189 126.77590963 691.89711833 129.26263952 C691.90434352 135.38676512 691.90689089 141.51087816 691.90744739 147.63500752 C691.908362 154.97121364 691.91503245 162.30741172 691.92179421 169.64361437 C691.9378468 187.37448759 691.9437567 205.10535993 691.94854296 222.8362391 C691.9508797 231.22613565 691.95448245 239.61603152 691.95823834 248.00592754 C691.97107335 276.73216006 691.98179245 305.4583922 691.98524094 334.18462753 C691.98546257 335.98757493 691.98568435 337.79052232 691.98590629 339.59346971 C691.98612693 341.40074243 691.98634741 343.20801515 691.98656774 345.01528788 C691.98701029 348.64091524 691.9874574 352.26654259 691.98790741 355.89216995 C691.9880168 356.79111335 691.98812619 357.69005675 691.9882389 358.61624085 C691.99186894 387.75971718 692.00778725 416.90316863 692.03109777 446.04663543 C692.05570476 476.86738758 692.06941418 507.68812551 692.07060885 538.50888777 C692.0707803 541.89356073 692.07099573 545.27823369 692.07124329 548.66290665 C692.07129905 549.49629269 692.07135482 550.32967873 692.07141228 551.1883189 C692.07256199 564.58852776 692.08357714 577.98871105 692.09813034 591.38891128 C692.11251083 604.86330103 692.11572357 618.33765807 692.10769036 631.81205338 C692.10324139 639.81184453 692.10706532 647.81152992 692.12292887 655.81130713 C692.13385843 661.79274462 692.12901488 667.774062 692.118157 673.75550407 C692.11619966 676.1694099 692.1192801 678.58332637 692.12800136 680.99721724 C692.17000363 693.41199117 691.96265417 705.08132322 688.74767303 717.13142776 C688.55041665 717.89343066 688.35316027 718.65543355 688.14992642 719.44052744 C680.07515095 748.36758872 660.41762437 771.9990191 634.69542694 787.06306839 C618.72790336 795.82138917 600.68530019 800.29423512 582.54054737 800.26564884 C581.52206143 800.26800107 580.50357549 800.2703533 579.45422634 800.27277681 C576.0315488 800.27944906 572.60890938 800.27900912 569.18622589 800.27859879 C566.71130795 800.28189852 564.23639055 800.28562432 561.76147383 800.28974026 C555.66640353 800.29870546 549.57134547 800.30298595 543.47627029 800.30525923 C536.17459786 800.30822502 528.87293502 800.31692474 521.57126763 800.32567351 C503.92173438 800.34650522 486.27219946 800.35698634 468.62265678 800.36580312 C460.2689799 800.37001209 451.91530374 800.3752338 443.56162746 800.38048765 C414.95303229 800.39837817 386.34443691 800.41337247 357.73583698 800.42080784 C355.94015528 800.42128259 354.14447358 800.42175848 352.34879188 800.4222355 C351.01307519 800.42259006 351.01307519 800.42259006 349.65037433 800.42295179 C345.1389433 800.42415296 340.62751227 800.42536842 336.11608124 800.42659378 C335.22078132 800.42683393 334.32548141 800.42707408 333.40305119 800.42732151 C304.39151925 800.43521006 275.38002825 800.45863257 246.36851417 800.49114972 C215.67987117 800.5254837 184.99125211 800.54516235 154.3025896 800.54845208 C150.93046517 800.5488696 147.55834076 800.54934916 144.18621635 800.54987526 C143.35593373 800.54999845 142.5256511 800.55012164 141.67020839 800.55024857 C128.33420549 800.55257631 114.9982503 800.5682126 101.66226437 800.58871711 C88.24379271 800.60902025 74.82537806 800.61443126 61.40689389 800.60494647 C53.44589165 800.5997487 45.48507987 800.60552689 37.52410522 800.62748114 C31.56265529 800.64267141 25.60141661 800.6366863 19.6399556 800.62281062 C17.24076375 800.62044037 14.84155327 800.62472754 12.44238982 800.63663927 C-6.65234524 800.72551204 -24.68436278 799.10835957 -42.25232697 791.13142776 C-43.2307254 790.70216995 -44.20912384 790.27291214 -45.21717072 789.83064651 C-71.40388795 777.6147666 -91.92628621 754.86208218 -102.00623322 727.87752151 C-105.97641144 715.94209544 -108.40735704 704.50105683 -108.38375473 691.88189411 C-108.38580736 690.85883304 -108.38786 689.83577197 -108.38997483 688.78170905 C-108.39564246 685.34350608 -108.39418786 681.9053432 -108.39276886 678.46713638 C-108.39535263 675.98111819 -108.39836583 673.49510041 -108.40177226 671.00908321 C-108.40899747 664.88668758 -108.41154482 658.76430452 -108.41210132 652.64190512 C-108.41301593 645.30772149 -108.41968641 637.9735459 -108.42644814 630.63936573 C-108.44250102 612.9129528 -108.44841075 595.18654074 -108.45319689 577.46012186 C-108.45553369 569.07188836 -108.45913645 560.68365554 -108.46289227 552.29542257 C-108.47572755 523.57362925 -108.48644643 494.8518363 -108.48989487 466.13004017 C-108.4901165 464.32734688 -108.49033828 462.52465359 -108.49056022 460.7219603 C-108.49078086 458.91494562 -108.49100134 457.10793094 -108.49122167 455.30091625 C-108.49166422 451.67581658 -108.49211133 448.0507169 -108.49256134 444.42561722 C-108.49272543 443.07739826 -108.49272543 443.07739826 -108.49289283 441.70194256 C-108.49652253 412.565456 -108.51243941 383.42899435 -108.5357517 354.29251732 C-108.5603617 323.4776956 -108.57406826 292.6628881 -108.57526278 261.84805626 C-108.57543423 258.46364621 -108.57564966 255.07923617 -108.57589722 251.69482613 C-108.57598087 250.4448482 -108.57598087 250.4448482 -108.57606621 249.16961819 C-108.57721568 235.77332614 -108.58822888 222.37705969 -108.60278427 208.98077628 C-108.61716868 195.50860965 -108.6203753 182.03647573 -108.61234429 168.56430352 C-108.6078971 160.5669444 -108.61171209 152.5696911 -108.6275828 144.57234594 C-108.63851999 138.59094228 -108.63366321 132.60965861 -108.62281093 126.62825035 C-108.62085501 124.21567262 -108.62392745 121.80308421 -108.63265529 119.39052147 C-108.74507381 86.20330994 -100.03769012 56.53227843 -76.40076447 32.11580276 C-55.99942343 12.12380903 -28.60152256 -0.05347882 0 0 Z " fill="#00B188" transform="translate(108.25232696533203,-0.13142776489257813)"/>
<path d="M0 0 C35.64 0 71.28 0 108 0 C108 148.5 108 297 108 450 C72.36 450 36.72 450 0 450 C0 301.5 0 153 0 0 Z " fill="#02B188" transform="translate(110,175)"/>
<path d="M0 0 C56.76 0 113.52 0 172 0 C172 169.62 172 339.24 172 514 C115.24 514 58.48 514 0 514 C0 344.38 0 174.76 0 0 Z M32 32 C32 180.5 32 329 32 482 C67.64 482 103.28 482 140 482 C140 333.5 140 185 140 32 C104.36 32 68.72 32 32 32 Z " fill="#FDFEFE" transform="translate(78,143)"/>
<path d="M0 0 C7.26 0 14.52 0 22 0 C22 13.53 22 27.06 22 41 C24.31 39.35 26.62 37.7 29 36 C35.88093592 32.38997003 45.47604704 33.05451777 52.953125 34.6171875 C62.38432916 37.96852734 69.57661018 45.15022417 74 54 C76.86037028 60.66160863 77.46491234 66.73951739 77.375 73.9375 C77.38660156 74.86240234 77.39820313 75.78730469 77.41015625 76.74023438 C77.36259738 88.05131943 73.94800931 98.18736779 66.44140625 106.78515625 C59.62811072 113.17364198 51.72068606 116.28777023 42.4375 116.625 C34.84717106 116.37715252 28.44987272 114.44987272 23 109 C22.67 110.65 22.34 112.3 22 114 C14.74 114 7.48 114 0 114 C0 76.38 0 38.76 0 0 Z " fill="#FCFDFD" transform="translate(461,278)"/>
<path d="M0 0 C7.59 0 15.18 0 23 0 C23.33 14.52 23.66 29.04 24 44 C29.73754152 37.68870433 35.2464375 31.55937345 40.578125 24.9609375 C43.37950201 21.53602819 46.24277229 18.16939993 49.125 14.8125 C49.60372559 14.25457764 50.08245117 13.69665527 50.57568359 13.12182617 C51.53834662 12.00276733 52.51233543 10.89336192 53.49682617 9.79345703 C55.06624506 7.99192871 55.06624506 7.99192871 56.43481445 5.81201172 C58.97796257 2.21780176 60.66950777 0.2731509 65.0859375 -0.63354492 C68.73538984 -0.78738541 72.29055593 -0.69888945 75.9375 -0.5 C77.19369141 -0.46390625 78.44988281 -0.4278125 79.74414062 -0.390625 C82.83258778 -0.29667984 85.91469438 -0.165449 89 0 C89 0.66 89 1.32 89 2 C88.34 2 87.68 2 87 2 C86.76410156 2.55558594 86.52820313 3.11117188 86.28515625 3.68359375 C84.6872248 6.56375591 82.694995 8.66369076 80.4375 11.0625 C76.98537429 14.77478591 73.68074816 18.54816138 70.5 22.5 C67.44651321 26.28460334 64.29331699 29.92207537 61 33.5 C57.55906527 37.25914029 54.16961864 41.04902377 50.875 44.9375 C50.12992187 45.81277344 49.38484375 46.68804687 48.6171875 47.58984375 C46.62854509 50.0698537 46.62854509 50.0698537 47 54 C48.66438938 56.52244098 48.66438938 56.52244098 50.9375 59.0625 C51.76765625 60.04089844 52.5978125 61.01929688 53.453125 62.02734375 C54.29359375 63.00832031 55.1340625 63.98929687 56 65 C57.40077865 66.70428069 58.79666258 68.41259679 60.1875 70.125 C61.79099204 72.0838908 63.39504239 74.04231082 65 76 C65.52255371 76.63744141 66.04510742 77.27488281 66.58349609 77.93164062 C68.34612187 80.08042293 70.11026902 82.22794635 71.875 84.375 C72.46901611 85.09840576 73.06303223 85.82181152 73.67504883 86.56713867 C76.53484122 90.04116169 79.41146061 93.49700631 82.34375 96.91015625 C82.85695801 97.50844238 83.37016602 98.10672852 83.89892578 98.72314453 C84.86161251 99.84123686 85.82854999 100.95568746 86.80029297 102.06591797 C90 105.78088356 90 105.78088356 90 108 C66.64080434 110.6837088 66.64080434 110.6837088 59.47705078 106.54101562 C55.25706312 102.72478299 52.30941846 98.07185094 49.39550781 93.22265625 C47.34792373 89.96142365 44.87272394 87.17562368 42.3125 84.3125 C37.89225966 79.16207246 33.68301815 73.85616151 29.52661133 68.49145508 C27.76321282 66.21869597 26.03654584 64.03654584 24 62 C23.67 77.18 23.34 92.36 23 108 C15.41 108 7.82 108 0 108 C0 72.36 0 36.72 0 0 Z " fill="#FBFDFC" transform="translate(283,284)"/>
<path d="M0 0 C7.92 0 15.84 0 24 0 C26.28296054 6.49471698 28.56307629 12.99028765 30.8359375 19.48852539 C31.61030391 21.69972476 32.38633876 23.91034057 33.1640625 26.12036133 C34.28041712 29.29357086 35.39079243 32.46881751 36.5 35.64453125 C36.84998047 36.63524124 37.19996094 37.62595123 37.56054688 38.64668274 C37.88087891 39.56741074 38.20121094 40.48813873 38.53125 41.43676758 C38.81548828 42.2472908 39.09972656 43.05781403 39.39257812 43.89289856 C40 46 40 46 40 49 C40.66 49 41.32 49 42 49 C42.26280762 47.71359619 42.52561523 46.42719238 42.79638672 45.10180664 C43.92219711 40.04700804 45.51770299 35.24311018 47.2578125 30.37109375 C47.56572723 29.49598648 47.87364197 28.62087921 48.19088745 27.71925354 C49.16407739 24.95692936 50.14440471 22.19720289 51.125 19.4375 C51.7908404 17.55160022 52.45620949 15.66553396 53.12109375 13.77929688 C54.74108945 9.18392253 56.37073729 4.59213862 58 0 C65.59 0 73.18 0 81 0 C72.69811508 22.9856153 63.9835682 45.80551036 55.21421814 68.61625671 C52.93642052 74.54619521 50.67496536 80.48198145 48.43359375 86.42578125 C48.03921616 87.47086601 48.03921616 87.47086601 47.63687134 88.5370636 C46.44889534 91.68684462 45.26424533 94.83779372 44.08398438 97.99047852 C43.68373047 99.05322998 43.28347656 100.11598145 42.87109375 101.2109375 C42.53005615 102.12149902 42.18901855 103.03206055 41.83764648 103.97021484 C41 106 41 106 40 107 C38.43827255 107.08685603 36.87270656 107.10702219 35.30859375 107.09765625 C34.36435547 107.09443359 33.42011719 107.09121094 32.44726562 107.08789062 C31.45404297 107.07951172 30.46082031 107.07113281 29.4375 107.0625 C28.44041016 107.05798828 27.44332031 107.05347656 26.41601562 107.04882812 C23.94395151 107.03700007 21.47200482 107.02051849 19 107 C19.67349237 100.36284129 22.57183811 94.61848137 25.29296875 88.60742188 C25.65261719 87.76115234 26.01226562 86.91488281 26.3828125 86.04296875 C26.71684082 85.29039795 27.05086914 84.53782715 27.39501953 83.76245117 C29.24706544 75.30567174 25.56331965 67.37442804 22.51953125 59.6171875 C22.0690593 58.44471466 21.61858734 57.27224182 21.15446472 56.0642395 C19.95938283 52.95988655 18.75513158 49.85942465 17.54626465 46.76043701 C16.3370645 43.65334985 15.14103828 40.54123392 13.94335938 37.4296875 C9.69576345 26.41548162 5.42033784 15.41538079 0.93237305 4.49658203 C0 2 0 2 0 0 Z " fill="#FCFDFD" transform="translate(369,314)"/>
<path d="M0 0 C7.88967897 4.44690996 13.92159797 10.01010569 16.4375 18.9375 C17.59388546 29.10959867 16.99533391 37.69117072 10.82421875 46.1484375 C6.65612786 51.26844271 2.8148078 54.50709683 -3.96484375 55.37109375 C-5.13144531 55.37238281 -6.29804687 55.37367188 -7.5 55.375 C-9.24603516 55.40400391 -9.24603516 55.40400391 -11.02734375 55.43359375 C-14.5625 54.9375 -14.5625 54.9375 -21.5625 50.9375 C-21.5625 58.8575 -21.5625 66.7775 -21.5625 74.9375 C-25.8525 74.9375 -30.1425 74.9375 -34.5625 74.9375 C-34.5625 50.1875 -34.5625 25.4375 -34.5625 -0.0625 C-30.2725 -0.0625 -25.9825 -0.0625 -21.5625 -0.0625 C-21.2325 0.9275 -20.9025 1.9175 -20.5625 2.9375 C-18.8609375 1.9475 -18.8609375 1.9475 -17.125 0.9375 C-11.21132546 -1.99844089 -6.25163453 -1.86452258 0 0 Z " fill="#F6FBF9" transform="translate(572.5625,452.0625)"/>
<path d="M0 0 C7.26 0 14.52 0 22 0 C22 37.62 22 75.24 22 114 C14.74 114 7.48 114 0 114 C0 76.38 0 38.76 0 0 Z " fill="#FCFEFD" transform="translate(552,278)"/>
<path d="M0 0 C16.17 0 32.34 0 49 0 C49 3.96 49 7.92 49 12 C36.79 12 24.58 12 12 12 C12 18.27 12 24.54 12 31 C22.89 31 33.78 31 45 31 C45 34.63 45 38.26 45 42 C34.11 42 23.22 42 12 42 C12 48.93 12 55.86 12 63 C23.88 63 35.76 63 48 63 C48 66.63 48 70.26 48 74 C32.16 74 16.32 74 0 74 C0 49.58 0 25.16 0 0 Z " fill="#FBFDFC" transform="translate(283,432)"/>
<path d="M0 0 C6.73913588 3.75836424 10.49147102 7.69690986 13.25 14.8125 C14.25 18.8125 14.25 18.8125 14.25 29.8125 C2.7 29.8125 -8.85 29.8125 -20.75 29.8125 C-18.71109722 38.32323635 -18.71109722 38.32323635 -15.02734375 41.34765625 C-8.69621496 44.1774218 -0.88140906 43.92823547 5.78125 42.12890625 C7.84413425 41.29227204 7.84413425 41.29227204 10.25 39.8125 C10.25 43.4425 10.25 47.0725 10.25 50.8125 C2.29605275 56.1151315 -7.15137339 56.10052021 -16.3515625 54.3046875 C-24.13226879 51.69109118 -28.05812518 46.92645395 -31.76953125 39.99609375 C-35.37031091 31.97682749 -34.78683516 22.52893327 -31.75 14.4375 C-28.47183274 7.42740787 -23.97830028 3.6657835 -17.375 -0.125 C-11.2894089 -1.90870774 -6.05022422 -1.91590433 0 0 Z " fill="#F8FCFB" transform="translate(472.75,452.1875)"/>
<path d="M0 0 C6.0404803 3.98627284 8.5497473 10.52318169 10.125 17.40234375 C10.125 20.70234375 10.125 24.00234375 10.125 27.40234375 C-1.425 27.40234375 -12.975 27.40234375 -24.875 27.40234375 C-22.58516056 35.8846265 -22.58516056 35.8846265 -16.875 40.40234375 C-10.90573644 42.39209827 -5.65189341 42.01490164 0.0625 39.40234375 C0.79339844 39.03109375 1.52429688 38.65984375 2.27734375 38.27734375 C4.125 37.40234375 4.125 37.40234375 6.125 37.40234375 C6.125 41.03234375 6.125 44.66234375 6.125 48.40234375 C-2.01795495 53.05546086 -9.75142102 53.4384889 -18.875 52.40234375 C-25.42478893 50.57781975 -29.95801203 47.22743029 -33.69140625 41.55859375 C-38.15345934 33.42970495 -39.42346282 24.78975288 -37.21875 15.6953125 C-34.47770855 8.00385568 -29.9533452 1.63694044 -22.5625 -2.09765625 C-14.34619617 -5.20314058 -7.58425048 -4.27799129 0 0 Z " fill="#F9FCFB" transform="translate(749.875,454.59765625)"/>
<path d="M0 0 C5.54227766 3.25208028 8.24438077 8.04894511 9.890625 14.109375 C10.14982161 17.15210493 10.12425749 20.17468341 10.0859375 23.2265625 C10.0831076 24.08371857 10.08027771 24.94087463 10.07736206 25.82400513 C10.06622499 28.54427432 10.0411326 31.26420641 10.015625 33.984375 C10.00558682 35.83593272 9.99646244 37.68749564 9.98828125 39.5390625 C9.96630688 44.0626286 9.931822 48.58594477 9.890625 53.109375 C5.600625 53.109375 1.310625 53.109375 -3.109375 53.109375 C-3.13443115 52.04501221 -3.1594873 50.98064941 -3.18530273 49.8840332 C-3.2796917 45.92363071 -3.37983475 41.96339077 -3.48168945 38.00317383 C-3.52491945 36.29129853 -3.56660265 34.57938343 -3.60668945 32.86743164 C-3.66468214 30.40238466 -3.72829197 27.93753582 -3.79296875 25.47265625 C-3.80968124 24.71100662 -3.82639374 23.94935699 -3.84361267 23.16462708 C-3.94855414 19.3744145 -4.21330127 15.7989028 -5.109375 12.109375 C-8.99462462 10.81429179 -13.06908161 10.50814086 -17.109375 11.109375 C-19.9194096 12.90301411 -21.61877968 14.12818435 -23.109375 17.109375 C-23.26614275 19.80592946 -23.36773815 22.48067477 -23.42578125 25.1796875 C-23.44656235 25.97591522 -23.46734344 26.77214294 -23.48875427 27.59249878 C-23.55421649 30.13970185 -23.61311915 32.68700925 -23.671875 35.234375 C-23.7150634 36.95964627 -23.75867779 38.68490693 -23.80273438 40.41015625 C-23.90989445 44.64312185 -24.01117123 48.87619253 -24.109375 53.109375 C-28.069375 53.109375 -32.029375 53.109375 -36.109375 53.109375 C-36.109375 35.289375 -36.109375 17.469375 -36.109375 -0.890625 C-31.819375 -0.890625 -27.529375 -0.890625 -23.109375 -0.890625 C-22.779375 0.099375 -22.449375 1.089375 -22.109375 2.109375 C-21.6246875 1.820625 -21.14 1.531875 -20.640625 1.234375 C-13.53104395 -2.70323912 -7.56534797 -3.15719246 0 0 Z " fill="#F8FCFB" transform="translate(380.109375,452.890625)"/>
<path d="M0 0 C1 1 1 1 1.09765625 3.72265625 C1.08605469 4.82480469 1.07445312 5.92695313 1.0625 7.0625 C1.05347656 8.16722656 1.04445313 9.27195312 1.03515625 10.41015625 C1.02355469 11.26480469 1.01195312 12.11945313 1 13 C-1.81782144 11.89966226 -4.48781796 10.75130849 -7.1875 9.375 C-11.59003978 7.46464683 -16.2800181 7.33557842 -21 8 C-21.66 8.66 -22.32 9.32 -23 10 C-23.14768913 12.51749828 -23.14768913 12.51749828 -22 15 C-18.68022973 17.15785068 -15.17575636 18.28927924 -11.4375 19.5 C-5.99044221 21.27918973 -1.61128926 23.44923687 2.05078125 28.05859375 C4.0485711 32.14460839 3.61247454 36.59825991 3 41 C1.06102994 45.79639963 -2.40967276 48.25011792 -6.61328125 51.08984375 C-10.28430579 52.48975982 -13.85382053 52.36863369 -17.75 52.375 C-18.5234375 52.39949219 -19.296875 52.42398438 -20.09375 52.44921875 C-25.90936518 52.47849198 -30.08147973 51.0997089 -35 48 C-36 47 -36 47 -36.09765625 44.05859375 C-36.08605469 42.86363281 -36.07445312 41.66867187 -36.0625 40.4375 C-36.05347656 39.23996094 -36.04445313 38.04242188 -36.03515625 36.80859375 C-36.02355469 35.88175781 -36.01195312 34.95492187 -36 34 C-35.31292969 34.42152344 -34.62585938 34.84304688 -33.91796875 35.27734375 C-33.01691406 35.82519531 -32.11585938 36.37304688 -31.1875 36.9375 C-29.84751953 37.75541016 -29.84751953 37.75541016 -28.48046875 38.58984375 C-24.87078286 40.64196439 -22.08912306 41.15707498 -18 41.1875 C-17.13375 41.20167969 -16.2675 41.21585937 -15.375 41.23046875 C-12.73278463 41.16255938 -12.73278463 41.16255938 -10 39 C-9.74969023 36.41619823 -9.74969023 36.41619823 -10 34 C-13.73939888 31.97870331 -17.39567198 30.51807424 -21.4375 29.1875 C-27.18212521 27.14479267 -31.93770755 24.40243536 -35.16015625 19.0859375 C-36.63468227 15.42362637 -36.54576844 11.87428216 -36 8 C-33.29014921 2.68066326 -29.75171245 -0.68966074 -24.375 -3.25 C-15.47113996 -5.22863556 -8.10076614 -4.15039253 0 0 Z " fill="#F7FCFA" transform="translate(701,455)"/>
<path d="M0 0 C5.55413768 4.89293081 7.24323449 9.35470318 7.93359375 16.51171875 C8.24388224 24.90831322 7.4478062 30.96935792 1.625 37.3125 C-2.51552002 40.58402199 -7.07888009 42.05053301 -12.35546875 41.76953125 C-16.96609202 40.72612134 -20.79593064 38.03667303 -23.95581055 34.58642578 C-26.74952353 30.11014112 -25.88621153 24.56677365 -25.875 19.4375 C-25.91753906 17.67986328 -25.91753906 17.67986328 -25.9609375 15.88671875 C-25.98277664 6.26657559 -25.98277664 6.26657559 -23.04296875 2.61328125 C-15.91221083 -3.53608393 -8.30541255 -4.15270628 0 0 Z " fill="#05B289" transform="translate(508.375,333.6875)"/>
<path d="M0 0 C3.96 0 7.92 0 12 0 C12 4.62 12 9.24 12 14 C15.96 14 19.92 14 24 14 C24 17.63 24 21.26 24 25 C20.04 25 16.08 25 12 25 C12 39.19 12 53.38 12 68 C8.04 68 4.08 68 0 68 C0 53.81 0 39.62 0 25 C-3.63 25 -7.26 25 -11 25 C-11 21.7 -11 18.4 -11 15 C-7.37 15 -3.74 15 0 15 C0 10.05 0 5.1 0 0 Z " fill="#FCFDFD" transform="translate(410,438)"/>
<path d="M0 0 C0.66 0.33 1.32 0.66 2 1 C2 5.29 2 9.58 2 14 C1.01 13.67 0.02 13.34 -1 13 C-6.81829706 12.46424427 -6.81829706 12.46424427 -11.9375 14.875 C-15.58647711 18.63455218 -15.20900289 22.07603992 -15.31640625 27.0703125 C-15.33718735 27.86654022 -15.35796844 28.66276794 -15.37937927 29.48312378 C-15.44484149 32.03032685 -15.50374415 34.57763425 -15.5625 37.125 C-15.6056884 38.85027127 -15.64930279 40.57553193 -15.69335938 42.30078125 C-15.80051945 46.53374685 -15.90179623 50.76681753 -16 55 C-19.96 55 -23.92 55 -28 55 C-28 37.18 -28 19.36 -28 1 C-23.71 1 -19.42 1 -15 1 C-15 1.99 -15 2.98 -15 4 C-14.01 3.34 -13.02 2.68 -12 2 C-7.81517278 -0.41202873 -4.76900783 -0.40415321 0 0 Z " fill="#FAFDFC" transform="translate(628,451)"/>
<path d="M0 0 C0.99 0.33 1.98 0.66 3 1 C3 5.29 3 9.58 3 14 C2.01 13.67 1.02 13.34 0 13 C-5.81829706 12.46424427 -5.81829706 12.46424427 -10.9375 14.875 C-14.58647711 18.63455218 -14.20900289 22.07603992 -14.31640625 27.0703125 C-14.33718735 27.86654022 -14.35796844 28.66276794 -14.37937927 29.48312378 C-14.44484149 32.03032685 -14.50374415 34.57763425 -14.5625 37.125 C-14.6056884 38.85027127 -14.64930279 40.57553193 -14.69335938 42.30078125 C-14.80051945 46.53374685 -14.90179623 50.76681753 -15 55 C-18.96 55 -22.92 55 -27 55 C-27 37.51 -27 20.02 -27 2 C-23.04 2 -19.08 2 -15 2 C-14.67 2.99 -14.34 3.98 -14 5 C-13.21625 4.360625 -12.4325 3.72125 -11.625 3.0625 C-7.51312572 -0.16825836 -5.21988067 -0.18315371 0 0 Z " fill="#FCFEFD" transform="translate(525,451)"/>
<path d="M0 0 C4.62198193 1.80860162 6.53616693 4.77628616 9 9 C10.84961854 14.54885563 10.79897602 19.9415324 8.375 25.3125 C6.1926151 29.10894041 4.07763265 31.18771882 0 33 C-4.99638419 33.76990832 -8.69617057 33.79826292 -13.0625 31.125 C-17.09495706 26.70230516 -16.33144632 21.91805555 -16.4375 16.1875 C-16.48326172 15.18912109 -16.52902344 14.19074219 -16.57617188 13.16210938 C-16.68537027 6.03572694 -16.68537027 6.03572694 -14.8112793 3.20361328 C-10.22006612 -0.93326493 -5.77634378 -0.8708056 0 0 Z " fill="#04B189" transform="translate(567,463)"/>
<path d="M0 0 C3.96 0 7.92 0 12 0 C12 17.49 12 34.98 12 53 C8.04 53 4.08 53 0 53 C0 35.51 0 18.02 0 0 Z " fill="#FFFFFF" transform="translate(641,453)"/>
<path d="M0 0 C2.73698148 1.35969958 3.88530966 2.62742059 6 5 C6.33 6.98 6.66 8.96 7 11 C-0.59 11 -8.18 11 -16 11 C-14.91910497 5.59552487 -13.98080159 4.49533798 -10 1 C-6.76247585 -0.61876208 -3.49936966 -0.57132566 0 0 Z " fill="#13B58E" transform="translate(741,462)"/>
<path d="M0 0 C2.73698148 1.35969958 3.88530966 2.62742059 6 5 C6.33 6.98 6.66 8.96 7 11 C-0.59 11 -8.18 11 -16 11 C-14.79582373 6.18329492 -13.29327774 4.61457312 -10 1 C-6.76247585 -0.61876208 -3.49936966 -0.57132566 0 0 Z " fill="#13B58E" transform="translate(468,462)"/>
<path d="M0 0 C2.9375 0.5625 2.9375 0.5625 5.3125 2.125 C7.56090519 5.49760779 7.50533945 7.58762383 6.9375 11.5625 C5.3125 14 5.3125 14 2.9375 15.5625 C-0.87244895 16.21100195 -2.56585677 15.84321139 -5.9375 13.9375 C-8.0625 11.5625 -8.0625 11.5625 -8.6875 8.625 C-7.65245909 3.55329954 -5.10832595 0.93826395 0 0 Z " fill="#F3FAF8" transform="translate(647.0625,428.4375)"/>
</svg>
