<?xml version="1.0" encoding="UTF-8"?>
<svg version="1.1" xmlns="http://www.w3.org/2000/svg" width="1024" height="1024">
<path d="M0 0 C1.12061729 -0.00250352 2.24123459 -0.00500704 3.39580998 -0.00758642 C5.26947895 -0.00407467 5.26947895 -0.00407467 7.18099982 -0.00049198 C9.15869897 -0.00267214 9.15869897 -0.00267214 11.17635164 -0.00489634 C14.86951445 -0.00882216 18.56265142 -0.00644392 22.25581385 -0.00311839 C26.26114373 -0.00059779 30.26646943 -0.00383518 34.27179873 -0.00636172 C41.30296706 -0.00998667 48.33412773 -0.00985574 55.36529642 -0.00731456 C65.82103963 -0.0035459 76.27677632 -0.00545865 86.73251948 -0.00852287 C105.40454722 -0.01380086 124.07657155 -0.01332724 142.74859961 -0.01044396 C159.09404099 -0.00793224 175.43948112 -0.00726989 191.78492266 -0.0084666 C193.40882745 -0.00858118 193.40882745 -0.00858118 195.0655384 -0.00869807 C199.4598475 -0.00900939 203.85415659 -0.00932779 208.24846569 -0.00965784 C249.51336937 -0.0127202 290.77827088 -0.00993839 332.04317423 -0.00456094 C368.71784835 0.00018201 405.392519 -0.00023704 442.06719309 -0.00502193 C483.24116785 -0.01037584 524.41514068 -0.01250003 565.58911574 -0.00940967 C569.97838984 -0.00908894 574.36766394 -0.0087761 578.75693804 -0.0084666 C579.83774099 -0.00838752 580.91854393 -0.00830845 582.03209848 -0.00822697 C598.36245095 -0.0070889 614.69280204 -0.00842096 631.02315432 -0.01094615 C649.59623018 -0.01380377 668.16930208 -0.01309422 686.74237745 -0.00766541 C697.14045824 -0.00472645 707.53853046 -0.00454128 717.93661102 -0.00831159 C724.88040856 -0.01055185 731.82419922 -0.0091622 738.76799575 -0.00480682 C742.7257614 -0.00242556 746.68351003 -0.00161989 750.64127516 -0.0052128 C754.24417237 -0.0084502 757.8470375 -0.00706039 761.44993239 -0.00203214 C763.35127937 -0.00055517 765.25262825 -0.00396166 767.15397236 -0.00758642 C775.13465554 0.00989143 783.12042066 0.04761767 790.87310129 2.12534916 C791.48927317 2.27359135 792.10544504 2.42183354 792.74028879 2.57456791 C801.34286363 4.79611196 809.70732687 7.63546894 817.87310129 11.12534916 C819.0467927 11.62034916 819.0467927 11.62034916 820.24419504 12.12534916 C824.98714508 14.17289589 829.43504626 16.48140148 833.87310129 19.12534916 C833.87310129 19.78534916 833.87310129 20.44534916 833.87310129 21.12534916 C834.45285715 21.23564457 835.03261301 21.34593998 835.62993723 21.45957768 C838.13125597 22.20196952 839.67785355 23.22053457 841.76372629 24.77769291 C842.82720286 25.57143315 842.82720286 25.57143315 843.91216379 26.38120854 C845.00657786 27.21362065 845.00657786 27.21362065 846.12310129 28.06284916 C846.86817942 28.61392338 847.61325754 29.1649976 848.38091379 29.73277104 C849.43665598 30.52844487 849.43665598 30.52844487 850.51372629 31.34019291 C851.15857981 31.82608891 851.80343333 32.31198491 852.46782786 32.81260502 C853.16343821 33.46241337 853.16343821 33.46241337 853.87310129 34.12534916 C853.87310129 34.78534916 853.87310129 35.44534916 853.87310129 36.12534916 C854.77633127 36.283783 854.77633127 36.283783 855.69780833 36.44541752 C858.20034892 37.227637 859.01416484 38.01521863 860.67778879 40.00425541 C861.42463938 40.88536992 861.42463938 40.88536992 862.18657786 41.78428471 C862.70188059 42.41246098 863.21718333 43.04063725 863.74810129 43.68784916 C864.28402903 44.32827153 864.81995676 44.96869389 865.37212473 45.62852299 C869.02542753 50.02038959 872.54211472 54.4838105 875.87310129 59.12534916 C876.53052317 60.00964604 877.18794504 60.89394291 877.86528879 61.80503666 C883.87795434 69.93204614 888.32534779 77.65167772 891.87310129 87.12534916 C892.27657786 88.17851323 892.68005442 89.23167729 893.09575754 90.31675541 C898.98874222 106.15753074 902.03029257 121.254057 902.00173575 138.15567696 C902.0043653 140.12298402 902.0043653 140.12298402 902.00704798 142.13003466 C902.01176923 145.77116592 902.01027915 149.41227213 902.00777021 153.05340461 C902.00613562 157.01457549 902.01027923 160.97574104 902.01367939 164.93691021 C902.01883238 171.87983791 902.02025076 178.82275864 902.01922327 185.76568806 C902.01769905 196.09037623 902.02185857 206.41505667 902.0270979 216.73974333 C902.03677329 236.25312094 902.03958222 255.76649592 902.04015496 275.27987564 C902.04061438 290.34963841 902.04267209 305.41940014 902.04585558 320.48916256 C902.04675312 324.82594484 902.04764293 329.16272712 902.04853046 333.49950939 C902.04875151 334.57763189 902.04897256 335.65575438 902.0492003 336.76654725 C902.05535538 367.09650577 902.05930078 397.42646394 902.05885702 427.75642312 C902.05884144 428.90015055 902.05882587 430.04387799 902.05880982 431.22226383 C902.05872671 437.01922692 902.05862767 442.81619002 902.05852511 448.61315311 C902.05849519 450.34011604 902.05849519 450.34011604 902.05846467 452.10196712 C902.05842423 454.43019504 902.05838243 456.75842296 902.05833928 459.08665089 C902.05772659 495.30601592 902.06523149 531.52537158 902.07891184 567.74473393 C902.09427357 608.43244935 902.102878 649.12015862 902.10194862 689.80787712 C902.10187399 694.14685988 902.10182528 698.48584264 902.1017943 702.82482541 C902.10178265 703.89320053 902.10177099 704.96157565 902.10175899 706.06232578 C902.10172822 723.25340148 902.10811346 740.44446904 902.11672657 757.63554232 C902.12520493 774.91514936 902.12619157 792.19474451 902.11961725 809.47435249 C902.11592272 819.73812106 902.11775105 830.00185351 902.12755959 840.26561825 C902.13356137 847.12602039 902.13226188 853.98639637 902.12508909 860.84679731 C902.12120927 864.75272221 902.12042708 868.65857722 902.12854644 872.56449718 C902.13588504 876.12613734 902.13381941 879.68765014 902.12462257 883.24928486 C902.12212116 885.1164306 902.12931561 886.98358192 902.13704535 888.85071334 C902.10132259 897.43116604 901.173453 905.65696192 899.87310129 914.12534916 C899.21310129 914.12534916 898.55310129 914.12534916 897.87310129 914.12534916 C897.85183176 914.9819312 897.85183176 914.9819312 897.83013254 915.85581791 C897.32821411 924.38843136 894.68937298 932.43386955 890.28325754 939.77378666 C888.49437987 942.75690123 887.72839568 945.76996348 886.87310129 949.12534916 C886.21310129 949.12534916 885.55310129 949.12534916 884.87310129 949.12534916 C884.60497629 950.25972416 884.33685129 951.39409916 884.06060129 952.56284916 C883.66872629 953.73847416 883.27685129 954.91409916 882.87310129 956.12534916 C881.88310129 956.45534916 880.89310129 956.78534916 879.87310129 957.12534916 C879.78931223 957.84464604 879.70552317 958.56394291 879.61919504 959.30503666 C878.70583182 962.75764528 877.24302528 964.53334729 874.93560129 967.25034916 C874.13122629 968.20167729 873.32685129 969.15300541 872.49810129 970.13316166 C869.03538127 974.08025027 865.51297656 977.96535827 861.93950754 981.81284916 C859.75940492 984.14337607 859.75940492 984.14337607 857.87310129 987.12534916 C857.17185129 987.53784916 856.47060129 987.95034916 855.74810129 988.37534916 C852.42434091 990.39850766 849.71883797 992.80523842 846.83794504 995.40659916 C841.44355584 1000.12534916 841.44355584 1000.12534916 838.87310129 1000.12534916 C838.87310129 1000.78534916 838.87310129 1001.44534916 838.87310129 1002.12534916 C837.55310129 1002.12534916 836.23310129 1002.12534916 834.87310129 1002.12534916 C834.87310129 1002.78534916 834.87310129 1003.44534916 834.87310129 1004.12534916 C830.2184167 1006.48326968 825.55073418 1008.81331544 820.87310129 1011.12534916 C819.92048411 1011.59972416 818.96786692 1012.07409916 817.98638254 1012.56284916 C811.8616806 1015.49245248 805.69043991 1017.47418089 799.13482004 1019.23081791 C796.94706404 1019.83081327 794.77728233 1020.50030409 792.63091379 1021.23472416 C789.86062723 1022.12937761 787.75580662 1022.20771217 784.87310129 1022.12534916 C784.54310129 1022.45534916 784.21310129 1022.78534916 783.87310129 1023.12534916 C776.87555908 1024.31974667 769.930365 1024.26595577 762.84721762 1024.25398362 C761.53616957 1024.25573665 760.22512152 1024.25748969 758.87434474 1024.25929585 C755.23461508 1024.26401706 751.59491049 1024.26252704 747.95517961 1024.26001808 C743.99558729 1024.2583835 740.03600031 1024.26252709 736.0764097 1024.26592726 C729.13637298 1024.27108019 722.19634324 1024.27249864 715.2563048 1024.27147114 C704.93612947 1024.26994693 694.61596186 1024.27410637 684.29578802 1024.27934577 C664.79221568 1024.2890207 645.28864597 1024.29183006 625.78507151 1024.29240283 C610.72528582 1024.29286221 595.66550117 1024.29491969 580.60571581 1024.29810345 C576.27224143 1024.29900098 571.93876706 1024.29989079 567.60529268 1024.30077833 C566.52800979 1024.30099938 565.4507269 1024.30122043 564.34079907 1024.30144817 C534.03584284 1024.307603 503.73088697 1024.31154867 473.42593008 1024.31110489 C472.28318463 1024.31108931 471.14043918 1024.31107374 469.96306508 1024.31105769 C464.17102669 1024.31097458 458.3789883 1024.31087554 452.58694991 1024.31077298 C451.43660943 1024.31075303 450.28626896 1024.31073309 449.10106969 1024.31071254 C446.77480111 1024.3106721 444.44853254 1024.3106303 442.12226397 1024.31058715 C405.92307617 1024.30997429 369.72389774 1024.31748267 333.52471262 1024.33115971 C292.86486953 1024.34651574 252.20503258 1024.35512623 211.5451864 1024.35419649 C207.21076896 1024.35412186 202.87635152 1024.35407315 198.54193407 1024.35404217 C196.94104157 1024.35402469 196.94104157 1024.35402469 195.30780781 1024.35400686 C178.12338081 1024.35397607 160.93896193 1024.36036534 143.75453735 1024.36897444 C126.48844199 1024.37744564 109.22235854 1024.37844504 91.95626225 1024.37186512 C81.69609618 1024.36816601 71.43596622 1024.3700126 61.17580396 1024.37980746 C54.32290864 1024.38579738 47.47003955 1024.384523 40.61714544 1024.37733696 C36.71222724 1024.37344713 32.80737905 1024.37270375 28.90246572 1024.38079431 C24.69375826 1024.38943793 20.48521641 1024.38258026 16.27650839 1024.37423813 C15.06753329 1024.37920631 13.8585582 1024.38417449 12.61294749 1024.38929322 C5.48568635 1024.35934698 -1.16788074 1023.66624019 -8.12689871 1022.12534916 C-9.80139089 1021.75603276 -9.80139089 1021.75603276 -11.50971121 1021.37925541 C-24.24782177 1018.16750959 -36.1751477 1013.55271435 -48.12689871 1008.12534916 C-48.12689871 1007.46534916 -48.12689871 1006.80534916 -48.12689871 1006.12534916 C-49.77689871 1005.79534916 -51.42689871 1005.46534916 -53.12689871 1005.12534916 C-53.12689871 1004.46534916 -53.12689871 1003.80534916 -53.12689871 1003.12534916 C-54.07564871 1002.81597416 -55.02439871 1002.50659916 -56.00189871 1002.18784916 C-59.12689871 1001.12534916 -59.12689871 1001.12534916 -61.12689871 1000.12534916 C-61.12689871 999.46534916 -61.12689871 998.80534916 -61.12689871 998.12534916 C-61.68377371 997.85722416 -62.24064871 997.58909916 -62.81439871 997.31284916 C-67.18351065 995.06925114 -70.86959126 992.86522068 -74.12689871 989.12534916 C-74.12689871 988.46534916 -74.12689871 987.80534916 -74.12689871 987.12534916 C-74.71084402 987.02995854 -75.29478933 986.93456791 -75.89642996 986.83628666 C-78.60673419 985.97240686 -79.84051993 984.77989046 -81.81439871 982.75034916 C-82.71738699 981.8415601 -82.71738699 981.8415601 -83.63861746 980.91441166 C-85.12689871 979.12534916 -85.12689871 979.12534916 -86.12689871 976.12534916 C-86.82814871 975.60972416 -87.52939871 975.09409916 -88.25189871 974.56284916 C-92.4294138 971.02104289 -95.10509077 966.65806107 -98.12689871 962.12534916 C-98.71471121 961.28488041 -99.30252371 960.44441166 -99.90814871 959.57847416 C-100.45471121 958.78956791 -101.00127371 958.00066166 -101.56439871 957.18784916 C-102.05810964 956.47757573 -102.55182058 955.76730229 -103.06049246 955.03550541 C-104.12689871 953.12534916 -104.12689871 953.12534916 -104.12689871 950.12534916 C-105.11689871 949.79534916 -106.10689871 949.46534916 -107.12689871 949.12534916 C-107.97064871 947.26988041 -107.97064871 947.26988041 -108.62689871 944.93784916 C-109.78957611 941.09066528 -111.29466362 937.71015693 -113.12689871 934.12534916 C-114.53457233 930.42094488 -115.12689871 928.13433407 -115.12689871 924.12534916 C-115.78689871 924.12534916 -116.44689871 924.12534916 -117.12689871 924.12534916 C-117.65599756 921.83557671 -118.1749489 919.54345729 -118.68939871 917.25034916 C-118.97943777 915.97417729 -119.26947683 914.69800541 -119.56830496 913.38316166 C-120.12689871 910.12534916 -120.12689871 910.12534916 -119.12689871 908.12534916 C-119.78689871 908.12534916 -120.44689871 908.12534916 -121.12689871 908.12534916 C-122.11855004 900.71172654 -122.26818848 893.44596836 -122.25553316 885.97197354 C-122.2572862 884.65928165 -122.25903923 883.34658977 -122.26084539 881.99411935 C-122.26556082 878.35441411 -122.26407846 874.71473398 -122.26156762 871.07502752 C-122.25993154 867.11366416 -122.26407789 863.1523061 -122.2674768 859.19094443 C-122.27262735 852.24922947 -122.27404859 845.30752148 -122.27302068 838.36580479 C-122.27149584 828.04293597 -122.27565735 817.72007486 -122.28089531 807.39720753 C-122.29056828 787.88723567 -122.29337954 768.37726643 -122.29395237 748.86729245 C-122.29441186 733.80041402 -122.29646991 718.73353662 -122.29965299 703.66665852 C-122.30055053 699.33013916 -122.30144035 694.9936198 -122.30232787 690.65710044 C-122.30254892 689.5790352 -122.30276997 688.50096997 -122.30299771 687.39023609 C-122.30915232 657.06420543 -122.31309824 626.73817514 -122.31265444 596.41214383 C-122.31263886 595.26868241 -122.31262328 594.12522099 -122.31260723 592.94710922 C-122.31252412 587.15153695 -122.31242508 581.35596469 -122.31232252 575.56039242 C-122.31230257 574.40936614 -122.31228263 573.25833986 -122.31226208 572.07243399 C-122.31222164 569.74477773 -122.31217984 567.41712148 -122.31213669 565.08946522 C-122.31152396 528.87665038 -122.31902983 492.66384491 -122.33270925 456.45103276 C-122.34807094 415.76807111 -122.35667542 375.08511561 -122.35574603 334.40215087 C-122.3556714 330.06374538 -122.35562269 325.72533989 -122.35559171 321.3869344 C-122.35558006 320.31870578 -122.35556841 319.25047715 -122.3555564 318.14987796 C-122.35552563 300.96164673 -122.36191066 283.77342362 -122.37052398 266.58519481 C-122.37900225 249.30907043 -122.37998904 232.03295795 -122.37341466 214.75683264 C-122.36972015 204.49528073 -122.37154843 194.23376495 -122.381357 183.97221687 C-122.38735878 177.11332775 -122.3860593 170.25446478 -122.3788865 163.39557685 C-122.37500669 159.49053374 -122.37422445 155.58556054 -122.38234385 151.68052237 C-122.38968248 148.11969468 -122.38761679 144.55899438 -122.37841998 140.99817214 C-122.37591858 139.13146447 -122.38311299 137.26475122 -122.39084277 135.39805788 C-122.34920208 125.39839121 -122.21222086 114.39249506 -118.12689871 105.12534916 C-117.67240861 103.60950648 -117.23515149 102.08840066 -116.81439871 100.56284916 C-115.04218904 94.54807697 -112.61198956 88.87408781 -110.12689871 83.12534916 C-109.84330496 82.39960698 -109.55971121 81.67386479 -109.26752371 80.92613041 C-107.08870694 75.53047569 -104.12685214 70.67969705 -101.06439871 65.75034916 C-100.62845388 65.04748784 -100.19250906 64.34462651 -99.74335378 63.62046635 C-96.48960657 58.47570025 -96.48960657 58.47570025 -94.54315847 56.59556401 C-92.86884217 55.06854528 -92.86884217 55.06854528 -92.12689871 52.12534916 C-91.15752371 51.32097416 -90.18814871 50.51659916 -89.18939871 49.68784916 C-86.51395178 47.4492099 -85.30281859 46.30033286 -84.12689871 43.12534916 C-83.46689871 43.12534916 -82.80689871 43.12534916 -82.12689871 43.12534916 C-81.85877371 42.52722416 -81.59064871 41.92909916 -81.31439871 41.31284916 C-80.11702396 39.10715884 -79.08210887 37.68951729 -77.12689871 36.12534916 C-76.13689871 36.12534916 -75.14689871 36.12534916 -74.12689871 36.12534916 C-74.12689871 35.46534916 -74.12689871 34.80534916 -74.12689871 34.12534916 C-72.61395925 32.72080815 -72.61395925 32.72080815 -70.51361746 31.12144291 C-69.76016042 30.54587651 -69.00670339 29.9703101 -68.23041433 29.37730229 C-67.43312917 28.77853276 -66.63584402 28.17976323 -65.81439871 27.56284916 C-65.02871511 26.96021245 -64.24303152 26.35757573 -63.43353933 25.73667729 C-57.52924767 21.25946549 -57.52924767 21.25946549 -54.12689871 20.12534916 C-53.79689871 19.46534916 -53.46689871 18.80534916 -53.12689871 18.12534916 C-50.06439871 17.50034916 -50.06439871 17.50034916 -47.12689871 17.12534916 C-46.63189871 15.64034916 -46.63189871 15.64034916 -46.12689871 14.12534916 C-42.80598869 12.42001699 -40.94197087 12.12534916 -37.12689871 12.12534916 C-37.12689871 11.46534916 -37.12689871 10.80534916 -37.12689871 10.12534916 C-27.63728548 6.83433852 -18.28604675 3.69745831 -8.43549246 1.66831791 C-1.34253809 0.00009345 -1.34253809 0.00009345 0 0 Z " fill="#04AD87" transform="translate(122.12689870595932,-0.12534916400909424)"/>
<path d="M0 0 C9.40525104 -0.41957807 18.807225 -0.73807182 28.21983528 -0.93261909 C32.59249365 -1.02607002 36.95869665 -1.15240252 41.32763672 -1.35791016 C71.90884755 -2.75904581 71.90884755 -2.75904581 79.25610352 3.77929688 C82.41238405 7.41431185 84.6796509 11.29924079 86.75857544 15.62513733 C88.89200588 19.70641982 91.81471822 23.17100696 94.6875 26.75 C95.76901987 28.16016321 96.84759254 29.57259671 97.921875 30.98828125 C101.16757275 35.22931284 104.46031986 39.43193551 107.76855469 43.62426758 C111.51689734 48.37581137 115.22873542 53.15502611 118.9375 57.9375 C123.80864171 64.21509345 128.73584793 70.44307953 133.71557617 76.63476562 C138.57128647 82.68444909 143.29763493 88.83074671 148 95 C156.54381524 86.63668789 163.70654148 77.14208395 170.90258789 67.62744141 C174.7883231 62.51537517 178.81762141 57.54950188 182.9375 52.625 C189.86430404 44.32997444 196.26993629 35.68652573 202.59643555 26.9284668 C203.05961182 26.29207275 203.52278809 25.65567871 204 25 C204.51280518 24.25854736 205.02561035 23.51709473 205.55395508 22.75317383 C206.0311499 22.17462646 206.50834473 21.5960791 207 21 C207.66 21 208.32 21 209 21 C209.37898438 19.9171875 209.37898438 19.9171875 209.765625 18.8125 C211.09600468 15.78125515 212.67502227 13.57361579 214.75 11 C215.73226562 9.7625 215.73226562 9.7625 216.734375 8.5 C223.24885762 1.31160538 223.24885762 1.31160538 228.3789978 0.39872742 C229.60921661 0.40983047 230.83943542 0.42093353 232.10693359 0.43237305 C232.79055969 0.43164291 233.47418579 0.43091278 234.17852783 0.43016052 C236.41932881 0.43362083 238.6580036 0.47240106 240.8984375 0.51171875 C242.45926783 0.52105259 244.02011288 0.52816601 245.58096313 0.53315735 C249.67483474 0.55218269 253.76780923 0.60124335 257.86132812 0.65667725 C262.0441474 0.70796716 266.22711266 0.73069206 270.41015625 0.75585938 C278.607181 0.80936786 286.80347868 0.89462476 295 1 C294.16599626 5.35743528 291.82752166 7.6207668 289 11 C288.70609375 11.77472656 288.4121875 12.54945313 288.109375 13.34765625 C286.75991739 16.57400032 284.92759556 18.81941506 282.6875 21.5 C281.92824219 22.4178125 281.16898437 23.335625 280.38671875 24.28125 C278.02427402 26.97234907 275.5313426 29.4686574 273 32 C271.41082267 33.81025765 269.84792608 35.64393316 268.3125 37.5 C267.54550781 38.4178125 266.77851563 39.335625 265.98828125 40.28125 C264.12019319 42.83564939 263.12348349 45.07289728 262 48 C260.33784732 49.33895632 258.67036393 50.67130142 257 52 C255.50569068 53.79317118 254.15083875 55.66060901 252.78125 57.55078125 C250.67451901 60.44753636 248.49906171 63.28844816 246.3125 66.125 C245.88606201 66.67945801 245.45962402 67.23391602 245.02026367 67.80517578 C242.36455939 71.25155454 239.68335335 74.67661255 236.98583984 78.09033203 C232.64183992 83.5877442 228.37502107 89.13234105 224.1875 94.75 C219.8944018 100.50697202 215.53910062 106.21024776 211.125 111.875 C210.5487085 112.61548584 209.97241699 113.35597168 209.37866211 114.11889648 C206.291364 118.07996628 203.18859046 122.02811407 200.0703125 125.96484375 C199.43077637 126.77646973 198.79124023 127.5880957 198.13232422 128.42431641 C196.90717169 129.97871874 195.67726297 131.52938797 194.44189453 133.07568359 C190.12424749 138.06864931 190.12424749 138.06864931 188 144 C189.61785875 147.03995493 191.78598101 149.56385494 194 152.1875 C195.30909668 153.80037318 196.61767599 155.41366639 197.92578125 157.02734375 C198.60334473 157.85089355 199.2809082 158.67444336 199.97900391 159.52294922 C203.12205072 163.37525086 206.15068227 167.31383985 209.1875 171.25 C216.42412214 180.5638566 223.67086356 189.87090418 231.0625 199.0625 C233.99193035 202.70946288 236.85008075 206.40636326 239.6875 210.125 C243.47012898 215.07812781 247.36281592 219.92928741 251.3125 224.75 C256.50029652 231.08602882 261.51696114 237.53533963 266.46923828 244.05664062 C269.92784247 248.60904553 273.45010843 253.09929211 277.04296875 257.546875 C279.83467508 261.04625938 282.55124316 264.60263907 285.26782227 268.16040039 C288.62099945 272.54111156 292.08265104 276.82509839 295.6015625 281.07421875 C297 283 297 283 297 285 C287.59474896 285.41957807 278.192775 285.73807182 268.78016472 285.93261909 C264.40750635 286.02607002 260.04130335 286.15240252 255.67236328 286.35791016 C225.0903712 287.75903377 225.0903712 287.75903377 217.75488281 281.22949219 C214.60296903 277.59714325 212.34782227 273.71300412 210.26618958 269.39448547 C208.04855685 265.20073009 204.99052495 261.66066969 202 258 C200.83107371 256.50407842 199.66528003 255.00569885 198.50390625 253.50390625 C196.15944217 250.48940834 193.8128965 247.47654707 191.46484375 244.46484375 C185.71383225 237.08510764 179.98561041 229.68984051 174.3125 222.25 C166.0232457 211.38192217 157.56551691 200.65167433 149 190 C145.67388186 193.21082808 142.78356965 196.45343808 140.0625 200.1875 C136.1379265 205.49875614 132.12582851 210.73165076 128.0625 215.9375 C123.8970129 221.2768819 119.74272962 226.62369252 115.625 232 C112.83284278 235.63977637 110.01080811 239.24663466 107.125 242.8125 C103.71035586 247.05160551 100.44068508 251.38692903 97.1875 255.75 C93.2218991 261.06511147 89.21844585 266.34504292 85.125 271.5625 C84.69727295 272.10938477 84.2695459 272.65626953 83.82885742 273.21972656 C83.01490769 274.25236114 82.18586613 275.27335182 81.33937073 276.27947998 C79.96110024 277.95195001 79.96110024 277.95195001 79.01849365 279.81811523 C77.55266132 282.17239003 76.33157524 283.46345055 74 285 C68.48346049 286.00687205 63.03364838 285.81513618 57.4453125 285.68359375 C55.81723157 285.67052736 54.189123 285.6605681 52.56100464 285.65357971 C48.2892165 285.62693497 44.01911177 285.55824696 39.74798584 285.48065186 C35.38430554 285.4088631 31.02035143 285.37703507 26.65625 285.34179688 C18.1033967 285.26686943 9.55190813 285.14750271 1 285 C2.57075726 280.81000283 4.41736268 278.07107538 7.375 274.6875 C11.40726429 269.99060119 15.19329947 265.16345432 18.875 260.1875 C23.34046946 254.16501076 27.93294928 248.26938788 32.64013672 242.43432617 C35.81405922 238.49573441 38.93133965 234.52106698 42 230.5 C45.60306969 225.78086459 49.27960923 221.12716961 53 216.5 C58.43234386 209.74024918 63.73583276 202.8911186 69 196 C74.63992632 188.64561103 80.30634976 181.31286807 86 174 C93.46551055 164.41433976 93.46551055 164.41433976 100.859375 154.7734375 C102.21070232 153.02263021 103.59271891 151.29471044 105.015625 149.6015625 C105.58796875 148.90804687 106.1603125 148.21453125 106.75 147.5 C107.23984375 146.9328125 107.7296875 146.365625 108.234375 145.78125 C109.21562988 143.97060497 109.21562988 143.97060497 108.53125 141.79296875 C106.34120732 137.7983756 103.5886203 134.36547 100.75 130.8125 C99.47512845 129.19541653 98.20039264 127.57822604 96.92578125 125.9609375 C96.27303223 125.1369043 95.6202832 124.31287109 94.94775391 123.46386719 C91.92334311 119.63805198 88.92996286 115.78832167 85.9375 111.9375 C85.36056396 111.19636963 84.78362793 110.45523926 84.18920898 109.69165039 C80.202605 104.56537885 76.25013925 99.41394432 72.3125 94.25 C67.04649167 87.34523836 61.71121836 80.498979 56.32958984 73.68408203 C54.11213505 70.87541454 51.89928351 68.06313475 49.6875 65.25 C49.24132324 64.6825708 48.79514648 64.1151416 48.33544922 63.53051758 C43.93416437 57.92697969 39.56345478 52.2997773 35.19213867 46.67285156 C31.64161074 42.10448944 28.07926308 37.54587685 24.5 33 C20.148573 27.47237901 15.8199209 21.92727732 11.5 16.375 C10.89994141 15.60414063 10.29988281 14.83328125 9.68164062 14.0390625 C9.11638672 13.31203125 8.55113281 12.585 7.96875 11.8359375 C7.46794922 11.19188965 6.96714844 10.5478418 6.45117188 9.88427734 C5.7328418 8.95156006 5.7328418 8.95156006 5 8 C4.44376953 7.30213379 3.88753906 6.60426758 3.31445312 5.88525391 C2 4 2 4 2 2 C1.34 2 0.68 2 0 2 C0 1.34 0 0.68 0 0 Z " fill="#593C35" transform="translate(44,369)"/>
<path d="M0 0 C9.24 0 18.48 0 28 0 C28 17.16 28 34.32 28 52 C30.31 50.35 32.62 48.7 35 47 C43.47456749 42.07062658 53.01530642 41.69977243 62.5390625 43.47265625 C64.79780674 44.15849314 66.85536493 45.01361732 69 46 C69.96679688 46.4021875 70.93359375 46.804375 71.9296875 47.21875 C83.52128071 52.42195892 89.49506122 60.2062468 94.08984375 71.734375 C100.44992633 88.48334692 99.90720182 107.43899812 93 124 C87.35544778 134.86439298 78.05624601 142.0750952 67 147 C57.42424095 149.64896427 45.47416377 149.94999296 36.66772461 145.13647461 C34.02912847 143.52012179 31.49879702 141.82620076 29 140 C29 139.34 29 138.68 29 138 C28.34 138 27.68 138 27 138 C27 140.31 27 142.62 27 145 C18.09 145 9.18 145 0 145 C0 97.15 0 49.3 0 0 Z " fill="#F9FBFB" transform="translate(602,356)"/>
<path d="M0 0 C9.57 0 19.14 0 29 0 C29.33 18.48 29.66 36.96 30 56 C35.17077996 50.25468893 40.08723605 44.72347097 44.83984375 38.6953125 C47.31817452 35.60300105 49.86916036 32.58006671 52.4375 29.5625 C57.36525315 23.76723842 62.21270342 17.91218047 67 12 C67.75925781 11.06414062 68.51851563 10.12828125 69.30078125 9.1640625 C72.99119074 4.80804345 72.99119074 4.80804345 76 0 C87.55 0 99.1 0 111 0 C109.89219956 4.43120175 108.06011026 6.40813794 105 9.5625 C101.30403522 13.47481394 97.7531884 17.42912288 94.375 21.625 C91.51118217 25.18184136 88.57653672 28.62539052 85.5 32 C81.58476004 36.29588829 77.91439737 40.74989923 74.26171875 45.26953125 C72.01562065 47.98114191 69.68810787 50.58905455 67.3125 53.1875 C63.58875082 57.27055831 60.20497604 61.50046501 57 66 C58.65830846 69.94563047 61.34712332 72.9341957 64.125 76.125 C65.12868061 77.29334696 66.13127775 78.46262553 67.1328125 79.6328125 C67.62426758 80.20676758 68.11572266 80.78072266 68.62207031 81.37207031 C70.4614171 83.54513275 72.2350059 85.76629377 74 88 C77.04259361 91.84360294 80.1888207 95.58793583 83.375 99.3125 C87.48804811 104.1280522 91.39723404 109.05854179 95.21679688 114.10888672 C98.72780346 118.7209204 102.43953818 123.14122902 106.24609375 127.51171875 C109.12675398 130.84812522 111.58349965 134.31839815 114 138 C80.0577643 140.4214044 80.0577643 140.4214044 73.32421875 135.375 C70.66411992 132.57711246 68.79905268 129.39230753 67.05712891 125.96240234 C65.31252706 122.72380889 62.95555597 120.01716764 60.625 117.1875 C59.72239601 116.03218005 58.82271201 114.87457361 57.92578125 113.71484375 C54.62884285 109.49873124 51.22339151 105.37408204 47.8125 101.25 C41.7548718 93.92487672 35.70449766 86.60599688 30 79 C29.67 98.47 29.34 117.94 29 138 C19.43 138 9.86 138 0 138 C0 92.46 0 46.92 0 0 Z " fill="#F7FBFA" transform="translate(379,364)"/>
<path d="M0 0 C9.57 0 19.14 0 29 0 C29.9075 2.59875 30.815 5.1975 31.75 7.875 C33.4670369 12.77159726 35.20812472 17.63924786 37.1875 22.4375 C38.83091568 26.43738361 40.08842841 30.47984344 41.28515625 34.6328125 C41.93965593 36.8001721 42.68222112 38.88987625 43.5 41 C44.96459554 44.78353849 46.09958127 48.63137302 47.23828125 52.5234375 C48.3330281 56.08276827 49.65054859 59.52998208 51 63 C52.951422 59.42988693 54.18608962 55.66746386 55.4375 51.8125 C56.05431641 49.93498047 56.05431641 49.93498047 56.68359375 48.01953125 C57.00734985 47.03001465 57.00734985 47.03001465 57.33764648 46.02050781 C60.09911217 37.59666337 62.95082509 29.20294562 65.81616211 20.81396484 C66.31718865 19.34448367 66.81651518 17.87442186 67.31420898 16.40380859 C68.03998263 14.25996299 68.77134566 12.11809699 69.50390625 9.9765625 C69.72478409 9.32031891 69.94566193 8.66407532 70.17323303 7.98794556 C71.20329425 4.99467142 72.22945981 2.65581029 74 0 C76.70556641 -0.34057617 76.70556641 -0.34057617 80.1015625 -0.29296875 C81.31328125 -0.28330078 82.525 -0.27363281 83.7734375 -0.26367188 C85.04445313 -0.23853516 86.31546875 -0.21339844 87.625 -0.1875 C88.90375 -0.17396484 90.1825 -0.16042969 91.5 -0.14648438 C94.66708282 -0.11103196 97.83333541 -0.06161441 101 0 C100.71107915 1.59236715 100.41389426 3.18323618 100.11328125 4.7734375 C99.8663855 6.1025415 99.8663855 6.1025415 99.61450195 7.45849609 C99.05179713 9.78577349 98.35310332 11.55043418 97.1875 13.625 C95.07188522 17.49579148 93.82021254 21.54161345 92.5625 25.75 C90.7954339 31.629855 88.75237821 37.24351097 86.31640625 42.88671875 C82.09668766 52.8662906 78.60081322 63.1074223 75.21875 73.39453125 C72.78939303 80.58137897 70.10630724 87.66786863 66.9375 94.5625 C64.9372521 98.94858576 63.4789379 103.46170299 61.9921875 108.04296875 C60.84299236 111.46793223 59.5178985 114.79132766 58.1484375 118.1328125 C55.64785029 124.37577512 53.34944474 130.69921639 51 137 C41.76 137 32.52 137 23 137 C24.02398877 132.90404492 25.34488283 128.97495056 26.75 125 C27.01514404 124.24614014 27.28028809 123.49228027 27.5534668 122.71557617 C29.49819386 117.25071311 31.65085536 111.91022314 34.01953125 106.61328125 C36.39127842 100.29177186 35.81364004 96.32854998 33.25 90.1875 C32.68359467 88.76484026 32.11847952 87.34166615 31.5546875 85.91796875 C31.28237305 85.24040527 31.01005859 84.5628418 30.72949219 83.86474609 C29.84545454 81.60494705 29.09473458 79.31689838 28.375 77 C27.50997235 74.30314908 26.47316736 71.89457649 25.1328125 69.40234375 C22.70535406 64.62373422 21.11079278 59.66334381 19.5 54.5625 C17.59957686 48.57052659 15.54807664 42.81563214 12.92382812 37.10131836 C11.54357445 33.96182486 10.53432574 30.77070571 9.5 27.5 C7.89538604 22.52817488 6.11764509 17.73469208 3.9140625 12.99609375 C0 4.44871795 0 4.44871795 0 0 Z " fill="#F7FBFA" transform="translate(486,402)"/>
<path d="M0 0 C5.44405277 3.35654012 10.12823033 7.32337893 13.64453125 12.68359375 C14.12921875 13.369375 14.61390625 14.05515625 15.11328125 14.76171875 C20.54180352 24.11084044 19.53193483 36.20549174 18.64453125 46.68359375 C18.31453125 47.67359375 17.98453125 48.66359375 17.64453125 49.68359375 C16.98453125 49.68359375 16.32453125 49.68359375 15.64453125 49.68359375 C15.54398438 50.41449219 15.4434375 51.14539063 15.33984375 51.8984375 C14.00203793 57.25717654 10.07479457 61.81873863 5.73046875 65.15234375 C2.90060405 66.83822059 0.96639662 67.68359375 -2.35546875 67.68359375 C-2.35546875 68.34359375 -2.35546875 69.00359375 -2.35546875 69.68359375 C-5.93099477 70.47164229 -9.38369669 70.95987082 -13.04296875 71.12109375 C-13.99558594 71.18167969 -14.94820312 71.24226562 -15.9296875 71.3046875 C-19.35546875 70.68359375 -19.35546875 70.68359375 -29.35546875 64.68359375 C-29.35546875 74.58359375 -29.35546875 84.48359375 -29.35546875 94.68359375 C-34.63546875 94.68359375 -39.91546875 94.68359375 -45.35546875 94.68359375 C-45.35546875 63.33359375 -45.35546875 31.98359375 -45.35546875 -0.31640625 C-40.07546875 -0.31640625 -34.79546875 -0.31640625 -29.35546875 -0.31640625 C-29.02546875 1.00359375 -28.69546875 2.32359375 -28.35546875 3.68359375 C-27.59234375 3.04421875 -26.82921875 2.40484375 -26.04296875 1.74609375 C-19.42097118 -3.33590438 -7.60484214 -2.98350617 0 0 Z " fill="#F5FAF8" transform="translate(742.35546875,579.31640625)"/>
<path d="M0 0 C8.91 0 17.82 0 27 0 C27 48.18 27 96.36 27 146 C18.09 146 9.18 146 0 146 C0 97.82 0 49.64 0 0 Z " fill="#FAFBFB" transform="translate(717,356)"/>
<path d="M0 0 C20.13 0 40.26 0 61 0 C61 4.62 61 9.24 61 14 C45.82 14 30.64 14 15 14 C15 21.92 15 29.84 15 38 C28.53 38 42.06 38 56 38 C56 42.95 56 47.9 56 53 C42.8 53 29.6 53 16 53 C16 61.58 16 70.16 16 79 C30.85 79 45.7 79 61 79 C61 83.95 61 88.9 61 94 C40.87 94 20.74 94 0 94 C0 62.98 0 31.96 0 0 Z " fill="#F5FBF8" transform="translate(379,554)"/>
<path d="M0 0 C7.99120865 5.24774793 11.65061335 12.18448465 13.90625 21.20703125 C14.39289021 26.26808942 14.21875 31.37263075 14.21875 36.45703125 C-0.63125 36.45703125 -15.48125 36.45703125 -30.78125 36.45703125 C-27.33278935 46.98808464 -27.33278935 46.98808464 -19.78125 53.45703125 C-11.94132192 56.07034061 -4.13766889 54.75473627 3.21875 51.45703125 C5.2138667 50.77588971 7.2131723 50.10672543 9.21875 49.45703125 C9.35401139 51.70537621 9.45085804 53.95605639 9.53125 56.20703125 C9.58925781 57.46 9.64726563 58.71296875 9.70703125 60.00390625 C9.21875 63.45703125 9.21875 63.45703125 6.94140625 65.83203125 C-1.75164605 71.02042402 -13.74593795 70.81580096 -23.35546875 68.65234375 C-32.81998815 65.46452653 -38.12451531 60.04459909 -43.21875 51.64453125 C-48.03050963 41.82854159 -47.19159497 26.92295579 -43.8203125 16.74609375 C-40.28104955 8.94907086 -33.22989668 1.01301092 -25.05078125 -2.0703125 C-16.82692876 -3.78302533 -7.66741219 -3.61646275 0 0 Z " fill="#F5FBF8" transform="translate(957.78125,580.54296875)"/>
<path d="M0 0 C4.11527921 3.59325648 6.97115447 7.92788617 9 13 C9 14.32 9 15.64 9 17 C9.66 17 10.32 17 11 17 C11.82264831 22.65570712 12.42564759 28.27879563 12 34 C11 35 11 35 9.20933533 35.12025452 C8.42990067 35.11803391 7.650466 35.11581329 6.84741211 35.11352539 C5.96657455 35.11344986 5.085737 35.11337433 4.1782074 35.11329651 C3.22092239 35.10813522 2.26363739 35.10297394 1.27734375 35.09765625 C0.30213272 35.0962413 -0.67307831 35.09482635 -1.67784119 35.09336853 C-4.80609143 35.08775133 -7.93427123 35.07519593 -11.0625 35.0625 C-13.17773334 35.05748722 -15.29296781 35.05292393 -17.40820312 35.04882812 C-22.60549296 35.03777631 -27.80274145 35.02102146 -33 35 C-32.4030778 36.77287777 -31.79394148 38.54164617 -31.1796875 40.30859375 C-30.84179199 41.29400146 -30.50389648 42.27940918 -30.15576172 43.29467773 C-28.0848476 48.14212161 -25.05079113 49.97460444 -20.375 52.3125 C-11.88173415 54.04260971 -5.09339244 53.94069831 2.2578125 49.09375 C4 48 4 48 6 48 C6.34030504 52.71385506 6.51192284 57.2946667 6 62 C1.55150838 66.89334078 -4.92931253 67.79335397 -11.30859375 68.22265625 C-18.57247211 68.40249393 -24.28239818 67.7796973 -31 65 C-31 64.34 -31 63.68 -31 63 C-32.299375 62.7215625 -32.299375 62.7215625 -33.625 62.4375 C-41.04129171 59.27870909 -43.9206525 52.64109607 -47.01953125 45.55078125 C-50.44823242 36.63069415 -50.33670893 24.94844669 -47 16 C-43.18280741 8.11448372 -38.23780371 1.74361147 -30.375 -2.375 C-20.17125069 -5.06019719 -9.28748603 -5.64533465 0 0 Z " fill="#F3FAF8" transform="translate(621,582)"/>
<path d="M0 0 C1.03253906 0.01353516 1.03253906 0.01353516 2.0859375 0.02734375 C3.76577838 0.05067487 5.44543746 0.08653674 7.125 0.125 C7.125 0.785 7.125 1.445 7.125 2.125 C8.424375 2.2178125 8.424375 2.2178125 9.75 2.3125 C14.8414494 3.5382193 17.65900081 5.91829839 20.4884491 10.17733765 C24.24135437 17.06575294 24.79765713 22.71881677 24.61328125 30.4765625 C24.60620651 31.61660736 24.59913177 32.75665222 24.59184265 33.9312439 C24.56406882 37.53819073 24.50135905 41.14352999 24.4375 44.75 C24.4123953 47.20961285 24.38958596 49.66925026 24.36914062 52.12890625 C24.31429739 58.1282145 24.22814072 64.12633561 24.125 70.125 C18.845 70.125 13.565 70.125 8.125 70.125 C8.11041748 68.72741455 8.09583496 67.3298291 8.08081055 65.88989258 C8.02279169 60.69936678 7.94555837 55.50927315 7.86254883 50.3190918 C7.82931649 48.0737205 7.80127931 45.828266 7.77856445 43.58276367 C7.74498798 40.35299257 7.69266927 37.12398273 7.63671875 33.89453125 C7.63032883 32.89227005 7.6239389 31.89000885 7.61735535 30.8573761 C7.51360181 23.98071523 7.51360181 23.98071523 4.125 18.125 C1.55400598 16.77810085 1.55400598 16.77810085 -0.875 16.125 C-0.875 15.465 -0.875 14.805 -0.875 14.125 C-7.23832579 14.15385862 -10.90197515 15.2615252 -15.5625 19.65234375 C-17.92011754 22.29764676 -18.01581288 24.21985949 -18.08032227 27.66650391 C-18.10026749 28.60732819 -18.12021271 29.54815247 -18.14076233 30.51748657 C-18.16583107 32.04410416 -18.16583107 32.04410416 -18.19140625 33.6015625 C-18.21218735 34.64194672 -18.23296844 35.68233093 -18.25437927 36.75424194 C-18.31989872 40.08609249 -18.37877092 43.4180235 -18.4375 46.75 C-18.48068294 49.00521674 -18.52429715 51.26042527 -18.56835938 53.515625 C-18.67558258 59.05200033 -18.77684329 64.5884568 -18.875 70.125 C-24.155 70.125 -29.435 70.125 -34.875 70.125 C-34.875 47.355 -34.875 24.585 -34.875 1.125 C-29.595 1.125 -24.315 1.125 -18.875 1.125 C-18.875 2.775 -18.875 4.425 -18.875 6.125 C-18.17375 5.50625 -17.4725 4.8875 -16.75 4.25 C-11.45191334 0.33402291 -6.43643843 -0.16215833 0 0 Z " fill="#F1F9F7" transform="translate(487.875,577.875)"/>
<path d="M0 0 C0.89976562 0.37125 1.79953125 0.7425 2.7265625 1.125 C5 3 5 3 5.48828125 6.57421875 C5.45514248 7.94616376 5.39563595 9.3176753 5.3125 10.6875 C5.28994141 11.38939453 5.26738281 12.09128906 5.24414062 12.81445312 C5.18531647 14.5438833 5.09563389 16.27221438 5 18 C2.47683197 16.78735674 0.32533644 15.53616881 -2 13.9375 C-7.61371072 10.31197849 -13.46264772 10.47778547 -20 11 C-23.20580708 11.86460182 -23.20580708 11.86460182 -25 14 C-25.50313284 17.01879705 -25.72115493 18.94641678 -23.94921875 21.53515625 C-21.04667724 23.71642492 -17.75828426 24.47129675 -14.3125 25.4375 C1.95973567 30.30936158 1.95973567 30.30936158 6.921875 36.62109375 C9.42136878 42.13628112 8.92677552 48.1470083 8 54 C6.04655862 58.96928071 3.1365076 62.57502621 -1.375 65.4375 C-11.22367597 69.68261895 -22.39570393 71.13697674 -32.625 67.1875 C-34.9140625 66.16796875 -34.9140625 66.16796875 -37 65 C-38.11761719 64.443125 -38.11761719 64.443125 -39.2578125 63.875 C-41.56845523 61.38820962 -41.41125145 59.34664237 -41.3515625 56.04882812 C-41.31804688 55.31083984 -41.28453125 54.57285156 -41.25 53.8125 C-41.23195313 53.06291016 -41.21390625 52.31332031 -41.1953125 51.54101562 C-41.14824109 49.6934629 -41.07649766 47.84656841 -41 46 C-38.51194836 47.1985453 -36.3611705 48.43494775 -34.0625 50 C-28.92113636 53.35762523 -25.09656392 54.2927383 -18.9375 54.3125 C-17.72964844 54.32925781 -16.52179687 54.34601562 -15.27734375 54.36328125 C-11.80703193 53.97861021 -10.41921539 53.46641959 -8 51 C-7.24978756 48.54367668 -7.24978756 48.54367668 -8 46 C-12.02769027 41.97230973 -16.14981201 40.8398571 -21.5 39.5 C-29.97004245 37.3788322 -34.68665166 33.93687144 -40 27 C-41.84247818 21.47256545 -41.42324774 15.44543142 -40.4375 9.75 C-37.6261883 4.37183848 -33.63297255 0.31518691 -27.9375 -1.9375 C-18.83787196 -4.44184208 -8.54963298 -4.13033959 0 0 Z " fill="#F4FBF8" transform="translate(893,581)"/>
<path d="M0 0 C4.92242311 3.88260893 6.8742166 8.56014981 8.8125 14.375 C8.98810807 17.28548781 9.08968869 20.15049369 9.125 23.0625 C9.15400391 23.84044922 9.18300781 24.61839844 9.21289062 25.41992188 C9.29316833 32.82399595 6.76965228 38.5772893 1.9375 44.1875 C1.48632812 44.73019531 1.03515625 45.27289063 0.5703125 45.83203125 C-5.21381527 50.90921007 -11.16734134 51.0008674 -18.5390625 50.86328125 C-23.72361935 50.16941658 -26.75320765 48.23415326 -30.1875 44.375 C-30.7040918 43.84148926 -31.22068359 43.30797852 -31.75292969 42.75830078 C-33.75374793 39.43427293 -33.65520394 36.31017174 -33.65625 32.5390625 C-33.66386353 31.78209076 -33.67147705 31.02511902 -33.67932129 30.24520874 C-33.69010685 28.64657888 -33.69298164 27.04787865 -33.68847656 25.44921875 C-33.68750575 23.01441636 -33.72910501 20.58278379 -33.7734375 18.1484375 C-33.77864628 16.59115237 -33.78133266 15.03385634 -33.78125 13.4765625 C-33.79764526 12.75449615 -33.81404053 12.03242981 -33.83093262 11.28848267 C-33.75312063 5.54075334 -32.10507177 3.26850627 -28.1875 -0.625 C-19.47222598 -6.78946211 -8.67865365 -5.90340951 0 0 Z " fill="#06AF89" transform="translate(663.1875,428.625)"/>
<path d="M0 0 C5.28 0 10.56 0 16 0 C16 5.94 16 11.88 16 18 C20.62 18 25.24 18 30 18 C30 22.29 30 26.58 30 31 C25.05 31 20.1 31 15 31 C15 49.15 15 67.3 15 86 C10.05 86 5.1 86 0 86 C0 67.85 0 49.7 0 31 C-4.29 31 -8.58 31 -13 31 C-13 27.04 -13 23.08 -13 19 C-8.71 19 -4.42 19 0 19 C0 12.73 0 6.46 0 0 Z " fill="#F9FBFA" transform="translate(536,561)"/>
<path d="M0 0 C0 4.95 0 9.9 0 15 C-4.83398438 14.85351562 -4.83398438 14.85351562 -9.66796875 14.70703125 C-13.29569207 15.02599872 -15.02769557 15.98854709 -18 18 C-18.66 18 -19.32 18 -20 18 C-20.8522653 20.9774696 -21.14712372 23.67571776 -21.20532227 26.76855469 C-21.22526749 27.70922791 -21.24521271 28.64990112 -21.26576233 29.61907959 C-21.29083107 31.13021332 -21.29083107 31.13021332 -21.31640625 32.671875 C-21.33718735 33.70942932 -21.35796844 34.74698364 -21.37937927 35.815979 C-21.44471408 39.12725258 -21.50368517 42.43860482 -21.5625 45.75 C-21.60570049 47.99610185 -21.64931527 50.24219578 -21.69335938 52.48828125 C-21.80037907 57.99210708 -21.90169192 63.49601195 -22 69 C-27.28 69 -32.56 69 -38 69 C-38 46.23 -38 23.46 -38 0 C-32.72 0 -27.44 0 -22 0 C-21.67 1.32 -21.34 2.64 -21 4 C-20.46375 3.360625 -19.9275 2.72125 -19.375 2.0625 C-14.98194971 -1.75251736 -5.34570012 -2.67285006 0 0 Z " fill="#FBFCFB" transform="translate(811,579)"/>
<path d="M0 0 C1.1653125 -0.00257813 2.330625 -0.00515625 3.53125 -0.0078125 C6.5 0.125 6.5 0.125 8.5 1.125 C8.5 6.405 8.5 11.685 8.5 17.125 C6.85 16.795 5.2 16.465 3.5 16.125 C-1.36684178 15.66112914 -5.20010594 15.36672847 -9.5 17.875 C-12.63456446 21.40138502 -13.7412156 24.09207981 -13.81884766 28.80175781 C-13.83871735 29.72241028 -13.85858704 30.64306274 -13.87905884 31.59161377 C-13.89638565 33.06993683 -13.89638565 33.06993683 -13.9140625 34.578125 C-13.93342865 35.59348328 -13.9527948 36.60884155 -13.9727478 37.65496826 C-14.03248099 40.89489365 -14.07890428 44.13485468 -14.125 47.375 C-14.16318551 49.57293208 -14.20223758 51.77084928 -14.2421875 53.96875 C-14.33817755 59.35404574 -14.42223205 64.73941154 -14.5 70.125 C-19.45 70.125 -24.4 70.125 -29.5 70.125 C-29.5 47.355 -29.5 24.585 -29.5 1.125 C-24.55 1.125 -19.6 1.125 -14.5 1.125 C-14.17 2.775 -13.84 4.425 -13.5 6.125 C-12.71625 5.320625 -11.9325 4.51625 -11.125 3.6875 C-7.2438758 -0.10121648 -5.33442556 -0.01180183 0 0 Z " fill="#F7FBF9" transform="translate(675.5,577.875)"/>
<path d="M0 0 C5.23759027 3.27204867 7.96937991 8.40769898 9.83203125 14.16796875 C11.06007386 21.17679731 9.84615605 26.75441055 6.40234375 32.93359375 C3.61459285 36.90024428 0.17355059 39.99720908 -4.16796875 42.16796875 C-10.40198896 42.70538429 -15.01127634 41.87255487 -20.16796875 38.16796875 C-24.59300384 33.48287902 -23.72611881 27.9124849 -23.72387695 21.80566406 C-23.7304252 19.80626494 -23.78595281 17.80722357 -23.84179688 15.80859375 C-23.89104105 5.01864724 -23.89104105 5.01864724 -20.3203125 1.31640625 C-14.17367442 -2.87275229 -6.90523345 -2.65011662 0 0 Z " fill="#07B18D" transform="translate(736.16796875,593.83203125)"/>
<path d="M0 0 C5.28 0 10.56 0 16 0 C16 22.77 16 45.54 16 69 C10.72 69 5.44 69 0 69 C0 46.23 0 23.46 0 0 Z " fill="#F2F9F7" transform="translate(823,579)"/>
<path d="M0 0 C3.28675392 1.604604 5.34349526 3.68699052 7 7 C7 8.98 7 10.96 7 13 C-2.24 13 -11.48 13 -21 13 C-20.04455548 7.2673329 -19.72327454 5.94229069 -16 2 C-11.12085332 -1.25276446 -5.6987946 -0.70623099 0 0 Z " fill="#0BB495" transform="translate(610,592)"/>
<path d="M0 0 C1.54300781 -0.02513672 1.54300781 -0.02513672 3.1171875 -0.05078125 C6.52698523 0.36105146 8.38093879 1.28004259 11.125 3.3125 C13.17294514 7.01830548 13.125 8.88997888 13.125 13.3125 C3.885 13.3125 -5.355 13.3125 -14.875 13.3125 C-13.79981213 7.93656065 -12.52522428 6.22345459 -8.875 2.3125 C-5.45170149 0.03030099 -4.03362332 0.01508837 0 0 Z " fill="#0BB291" transform="translate(942.875,591.6875)"/>
<path d="M0 0 C3.66262449 0.81465246 5.13193418 2.40542239 7.16015625 5.48046875 C7.98880994 10.03806403 7.51911041 11.89308922 5.09765625 15.85546875 C1.62018851 18.96299311 -0.21839748 19.48046875 -4.83984375 19.48046875 C-7.7806882 18.66356751 -8.67861403 17.6820059 -10.58984375 15.29296875 C-12.19441514 11.68268312 -12.39903696 9.39482119 -11.83984375 5.48046875 C-8.64082959 0.63035051 -5.55413317 -0.34307667 0 0 Z " fill="#EFF7F4" transform="translate(832.83984375,549.51953125)"/>
<path d="M0 0 C5.28 0 10.56 0 16 0 C16.33 1.32 16.66 2.64 17 4 C18.32 2.68 19.64 1.36 21 0 C21.66 0.33 22.32 0.66 23 1 C19.38671875 5.6875 19.38671875 5.6875 18 7 C17.01 7 16.02 7 15 7 C14.67 5.68 14.34 4.36 14 3 C9.71 2.67 5.42 2.34 1 2 C1 23.78 1 45.56 1 68 C5.62 68 10.24 68 15 68 C15 53.48 15 38.96 15 24 C15.33 24 15.66 24 16 24 C16 38.85 16 53.7 16 69 C10.72 69 5.44 69 0 69 C0 46.23 0 23.46 0 0 Z " fill="#C2E9DD" transform="translate(773,579)"/>
<path d="M0 0 C1.65876874 0.04015762 3.3176304 0.07665445 4.9765625 0.109375 C9.02834434 0.19724933 13.07565088 0.33510873 17.125 0.5 C16.795 1.82 16.465 3.14 16.125 4.5 C15.63 3.51 15.63 3.51 15.125 2.5 C10.85519228 2.44478697 6.58947694 2.44276859 2.31982422 2.48779297 C0.8709402 2.49585128 -0.57809707 2.48994892 -2.02685547 2.46923828 C-10.75210125 2.19635676 -10.75210125 2.19635676 -18.66015625 5.34765625 C-20.61664865 7.30414865 -22.30166656 9.22798231 -23.875 11.5 C-23.875 7.44384849 -22.80566101 5.38820981 -20.33105469 2.2109375 C-14.73199191 -1.68948317 -6.55586955 -0.2748901 0 0 Z " fill="#A9E1D6" transform="translate(472.875,363.5)"/>
<path d="M0 0 C1.32 1.32 2.64 2.64 4 4 C3.01 4.495 3.01 4.495 2 5 C1.67 23.15 1.34 41.3 1 60 C0.67 60 0.34 60 0 60 C0 40.2 0 20.4 0 0 Z " fill="#19B190" transform="translate(408,442)"/>
<path d="M0 0 C0.33 0 0.66 0 1 0 C1 17.16 1 34.32 1 52 C2.32 52.33 3.64 52.66 5 53 C3.35 54.32 1.7 55.64 0 57 C0 38.19 0 19.38 0 0 Z " fill="#1BB290" transform="translate(408,364)"/>
<path d="M0 0 C9.57 0 19.14 0 29 0 C29.33 1.32 29.66 2.64 30 4 C29.67 3.34 29.34 2.68 29 2 C24.54114074 2.10944715 20.08315844 2.24017666 15.625 2.375 C14.35398437 2.4059375 13.08296875 2.436875 11.7734375 2.46875 C10.56171875 2.50742187 9.35 2.54609375 8.1015625 2.5859375 C6.42054443 2.63306885 6.42054443 2.63306885 4.70556641 2.68115234 C1.85289588 2.73411203 1.85289588 2.73411203 0 5 C0 3.35 0 1.7 0 0 Z " fill="#41C1A1" transform="translate(558,400)"/>
<path d="M0 0 C2.31 0.33 4.62 0.66 7 1 C7 6.28 7 11.56 7 17 C5.35 16.67 3.7 16.34 2 16 C2.99 15.67 3.98 15.34 5 15 C4.94011859 12.87420987 4.85137256 10.74921587 4.75 8.625 C4.70359375 7.44164062 4.6571875 6.25828125 4.609375 5.0390625 C4.34351201 1.88708247 4.34351201 1.88708247 1.953125 0.5859375 C1.30859375 0.39257812 0.6640625 0.19921875 0 0 Z " fill="#B3E4D8" transform="translate(677,578)"/>
<path d="M0 0 C5.28 0 10.56 0 16 0 C16.33 1.32 16.66 2.64 17 4 C18.32 2.68 19.64 1.36 21 0 C21.66 0.33 22.32 0.66 23 1 C19.38671875 5.6875 19.38671875 5.6875 18 7 C17.01 7 16.02 7 15 7 C15 5.02 15 3.04 15 1 C10.05 1 5.1 1 0 1 C0 0.67 0 0.34 0 0 Z " fill="#BBE3DA" transform="translate(773,579)"/>
<path d="M0 0 C0.66 0.33 1.32 0.66 2 1 C-1.96 4.96 -5.92 8.92 -10 13 C-10 9.28115772 -9.1259934 8.63852271 -6.6875 5.9375 C-5.76517578 4.89916016 -5.76517578 4.89916016 -4.82421875 3.83984375 C-3 2 -3 2 0 0 Z " fill="#C1EDE1" transform="translate(588,581)"/>
<path d="M0 0 C0.33 0 0.66 0 1 0 C1 4.29 1 8.58 1 13 C2.98 13.495 2.98 13.495 5 14 C3.35 15.32 1.7 16.64 0 18 C0 12.06 0 6.12 0 0 Z " fill="#27BA9C" transform="translate(408,403)"/>
<path d="M0 0 C0 4.62 0 9.24 0 14 C-0.99 14.495 -0.99 14.495 -2 15 C-1.96519531 14.22914063 -1.93039062 13.45828125 -1.89453125 12.6640625 C-1.86746094 11.66117188 -1.84039063 10.65828125 -1.8125 9.625 C-1.77769531 8.62726562 -1.74289062 7.62953125 -1.70703125 6.6015625 C-1.80371094 5.74304688 -1.90039062 4.88453125 -2 4 C-2.99 3.34 -3.98 2.68 -5 2 C-2 0 -2 0 0 0 Z " fill="#D4F0E9" transform="translate(627,630)"/>
<path d="M0 0 C1.32 1.32 2.64 2.64 4 4 C3.01 4.495 3.01 4.495 2 5 C1.53348793 7.12576782 1.53348793 7.12576782 1.375 9.5625 C1.30023438 10.38878906 1.22546875 11.21507812 1.1484375 12.06640625 C1.09945313 12.70449219 1.05046875 13.34257812 1 14 C0.67 14 0.34 14 0 14 C0 9.38 0 4.76 0 0 Z " fill="#1FB498" transform="translate(408,442)"/>
<path d="M0 0 C0.66 0.99 1.32 1.98 2 3 C-0.97 5.475 -0.97 5.475 -4 8 C-4.66 7.34 -5.32 6.68 -6 6 C-5.34 6 -4.68 6 -4 6 C-3.71125 5.38125 -3.4225 4.7625 -3.125 4.125 C-2 2 -2 2 0 0 Z " fill="#048F71" transform="translate(44,37)"/>
<path d="M0 0 C0.66 0 1.32 0 2 0 C0.61811547 3.21043882 -0.92421903 5.04936365 -3.625 7.25 C-4.57246094 8.03117187 -4.57246094 8.03117187 -5.5390625 8.828125 C-6.02117187 9.21484375 -6.50328125 9.6015625 -7 10 C-5.15014033 6.06048404 -2.92434659 3.21678125 0 0 Z " fill="#CEEDE5" transform="translate(455,365)"/>
<path d="M0 0 C0.99 0.33 1.98 0.66 3 1 C-2.75 6 -2.75 6 -5 6 C-5 5.34 -5 4.68 -5 4 C-4.01 4 -3.02 4 -2 4 C-2 3.01 -2 2.02 -2 1 C-1.34 0.67 -0.68 0.34 0 0 Z " fill="#2DC1A2" transform="translate(737,629)"/>
<path d="M0 0 C0.66 0.33 1.32 0.66 2 1 C0.35 2.98 -1.3 4.96 -3 7 C-3.99 6.67 -4.98 6.34 -6 6 C-5.34 6 -4.68 6 -4 6 C-3.71125 5.38125 -3.4225 4.7625 -3.125 4.125 C-2 2 -2 2 0 0 Z " fill="#D0EFE4" transform="translate(794,579)"/>
<path d="M0 0 C0.99 0.33 1.98 0.66 3 1 C1.02 3.31 -0.96 5.62 -3 8 C-3.33 7.01 -3.66 6.02 -4 5 C-3.34 5 -2.68 5 -2 5 C-1.34 3.35 -0.68 1.7 0 0 Z " fill="#36C6A7" transform="translate(431,391)"/>
</svg>
