<?xml version="1.0" encoding="UTF-8"?>
<svg version="1.1" xmlns="http://www.w3.org/2000/svg" width="800" height="800">
<path d="M0 0 C1.06422148 -0.00350607 2.12844295 -0.00701215 3.22491357 -0.01062447 C6.77910712 -0.01990364 10.33313556 -0.01502409 13.88733578 -0.01015663 C16.4661273 -0.01389464 19.04491769 -0.01849676 21.62370628 -0.02388728 C27.22457924 -0.03416606 32.82541764 -0.03703477 38.4262991 -0.03497505 C46.75548929 -0.03191952 55.08464138 -0.04026129 63.41382415 -0.0507243 C79.15777218 -0.07004954 94.90170716 -0.07569199 110.64566565 -0.07683842 C122.80677004 -0.07775816 134.96786933 -0.08187826 147.12897205 -0.08823967 C150.63192031 -0.09003481 154.13486858 -0.09181444 157.63781685 -0.09358943 C158.50871078 -0.09403152 159.37960472 -0.09447362 160.27688939 -0.09492911 C184.76855901 -0.10723487 209.26022687 -0.11513051 233.75189972 -0.11424255 C234.67499013 -0.1142114 235.59808055 -0.11418024 236.5491434 -0.11414814 C241.22754083 -0.11398193 245.90593826 -0.11378385 250.58433569 -0.11357872 C251.51344863 -0.11353883 252.44256157 -0.11349894 253.39982945 -0.11345784 C255.27872233 -0.11337697 257.1576152 -0.11329337 259.03650808 -0.11320706 C288.26121286 -0.11198188 317.48587121 -0.12698979 346.71056271 -0.15435219 C379.56019032 -0.18509601 412.40978744 -0.20228328 445.25943035 -0.20042574 C448.7645791 -0.20027649 452.26972784 -0.20017907 455.77487659 -0.20011711 C456.63790368 -0.2000938 457.50093076 -0.20007049 458.39011018 -0.20004648 C472.25814869 -0.19998502 486.12614679 -0.21273841 499.9941733 -0.22998164 C513.94086335 -0.24696357 527.8874945 -0.24889196 541.83418918 -0.235763 C550.1111194 -0.22839076 558.38787024 -0.23197992 566.66478132 -0.25164768 C572.85769254 -0.26511524 579.05041416 -0.25748999 585.24331664 -0.24190123 C587.73925507 -0.23883517 590.2352131 -0.2424487 592.7311284 -0.25362138 C625.02859462 -0.38855958 651.12079522 7.53640008 674.6077795 30.63226891 C692.51365573 48.71086233 702.28535811 72.88950821 702.17754841 98.3369894 C702.18105448 99.40121088 702.18456056 100.46543236 702.18817288 101.56190297 C702.19745205 105.11609652 702.19257249 108.67012497 702.18770504 112.22432518 C702.19144305 114.8031167 702.19604517 117.38190709 702.20143569 119.96069568 C702.21171447 125.56156864 702.21458318 131.16240704 702.21252346 136.7632885 C702.20946793 145.09247869 702.2178097 153.42163078 702.22827271 161.75081355 C702.24759795 177.49476158 702.2532404 193.23869656 702.25438683 208.98265506 C702.25530657 221.14375944 702.25942667 233.30485873 702.26578808 245.46596146 C702.26758322 248.96890971 702.26936285 252.47185798 702.27113783 255.97480625 C702.27180098 257.28114716 702.27180098 257.28114716 702.27247752 258.61387879 C702.28478328 283.10554841 702.29267892 307.59721627 702.29179096 332.08888912 C702.2917598 333.01197954 702.29172865 333.93506995 702.29169655 334.8861328 C702.29153034 339.56453023 702.29133225 344.24292766 702.29112713 348.92132509 C702.29106729 350.31499451 702.29106729 350.31499451 702.29100625 351.73681885 C702.29092538 353.61571173 702.29084178 355.49460461 702.29075547 357.37349748 C702.28953029 386.59820226 702.30453819 415.82286061 702.3319006 445.04755211 C702.36264442 477.89717973 702.37983169 510.74677684 702.37797415 543.59641975 C702.3778249 547.1015685 702.37772748 550.60671725 702.37766552 554.111866 C702.37763056 555.40640662 702.37763056 555.40640662 702.37759489 556.72709958 C702.37753343 570.5951381 702.39028682 584.46313619 702.40753005 598.33116271 C702.42451198 612.27785276 702.42644037 626.2244839 702.41331141 640.17117859 C702.40593917 648.4481088 702.40952833 656.72485964 702.42919609 665.00177072 C702.44266365 671.19468194 702.4350384 677.38740356 702.41944964 683.58030605 C702.41638358 686.07624447 702.41999711 688.5722025 702.43116979 691.0681178 C702.56610799 723.36558402 694.64114833 749.45778463 671.5452795 772.94476891 C653.46668607 790.85064513 629.2880402 800.62234751 603.84055901 800.51453781 C602.24422679 800.51979692 602.24422679 800.51979692 600.61564544 800.52516228 C597.06145189 800.53444145 593.50742344 800.5295619 589.95322323 800.52469444 C587.37443171 800.52843245 584.79564132 800.53303458 582.21685272 800.53842509 C576.61597977 800.54870387 571.01514137 800.55157258 565.41425991 800.54951286 C557.08506972 800.54645733 548.75591763 800.5547991 540.42673486 800.56526211 C524.68278683 800.58458735 508.93885184 800.5902298 493.19489335 800.59137623 C481.03378897 800.59229597 468.87268968 800.59641607 456.71158695 800.60277748 C453.20863869 800.60457263 449.70569043 800.60635225 446.20274216 800.60812724 C444.89640125 800.60879038 444.89640125 800.60879038 443.56366962 800.60946692 C419.07199999 800.62177269 394.58033214 800.62966833 370.08865929 800.62878036 C369.16556887 800.62874921 368.24247846 800.62871805 367.29141561 800.62868595 C362.61301817 800.62851974 357.93462074 800.62832166 353.25622331 800.62811653 C352.32711037 800.62807664 351.39799743 800.62803675 350.44072955 800.62799565 C348.56183668 800.62791478 346.6829438 800.62783118 344.80405093 800.62774487 C315.57934615 800.62651969 286.3546878 800.6415276 257.1299963 800.66889 C224.28036868 800.69963382 191.43077157 800.71682109 158.58112866 800.71496356 C155.07597991 800.7148143 151.57083116 800.71471688 148.06568241 800.71465492 C147.20265533 800.71463161 146.33962825 800.71460831 145.45044883 800.71458429 C131.58241031 800.71452283 117.71441221 800.72727622 103.8463857 800.74451945 C89.89969565 800.76150139 75.95306451 800.76342977 62.00636982 800.75030081 C53.72943961 800.74292857 45.45268877 800.74651773 37.17577768 800.76618549 C30.98286647 800.77965305 24.79014484 800.7720278 18.59724236 800.75643905 C16.10130394 800.75337298 13.60534591 800.75698651 11.1094306 800.7681592 C-21.18803562 800.90309739 -47.28023622 792.97813773 -70.7672205 769.88226891 C-88.67309672 751.80367548 -98.44479911 727.6250296 -98.3369894 702.17754841 C-98.34049548 701.11332693 -98.34400155 700.04910545 -98.34761387 698.95263484 C-98.35689304 695.39844129 -98.35201349 691.84441284 -98.34714603 688.29021263 C-98.35088404 685.71142111 -98.35548617 683.13263072 -98.36087668 680.55384213 C-98.37115546 674.95296917 -98.37402417 669.35213077 -98.37196445 663.75124931 C-98.36890893 655.42205912 -98.37725069 647.09290703 -98.38771371 638.76372426 C-98.40703894 623.01977623 -98.41268139 607.27584125 -98.41382782 591.53188276 C-98.41474756 579.37077837 -98.41886766 567.20967908 -98.42522907 555.04857635 C-98.42702422 551.5456281 -98.42880385 548.04267983 -98.43057883 544.53973156 C-98.43102092 543.66883762 -98.43146302 542.79794369 -98.43191851 541.90065902 C-98.44422428 517.4089894 -98.45211992 492.91732154 -98.45123196 468.42564869 C-98.4512008 467.50255827 -98.45116964 466.57946786 -98.45113754 465.62840501 C-98.45097133 460.95000758 -98.45077325 456.27161015 -98.45056812 451.59321272 C-98.45050829 450.19954331 -98.45050829 450.19954331 -98.45044724 448.77771896 C-98.45036637 446.89882608 -98.45028277 445.01993321 -98.45019646 443.14104033 C-98.44897128 413.91633555 -98.46397919 384.6916772 -98.49134159 355.4669857 C-98.52208541 322.61735808 -98.53927268 289.76776097 -98.53741515 256.91811806 C-98.53726589 253.41296931 -98.53716847 249.90782056 -98.53710651 246.40267181 C-98.53708321 245.53964473 -98.5370599 244.67661765 -98.53703588 243.78743823 C-98.53697442 229.91939971 -98.54972781 216.05140162 -98.56697104 202.18337511 C-98.58395298 188.23668505 -98.58588137 174.29005391 -98.5727524 160.34335922 C-98.56538016 152.06642901 -98.56896932 143.78967817 -98.58863708 135.51276709 C-98.60210464 129.31985587 -98.59447939 123.12713425 -98.57889064 116.93423177 C-98.57582457 114.43829334 -98.57943811 111.94233531 -98.59061079 109.44642001 C-98.72554898 77.14895379 -90.80058932 51.05675318 -67.7047205 27.56976891 C-49.62612707 9.66389268 -25.44748119 -0.1078097 0 0 Z " fill="#003529" transform="translate(98.07972049713135,-0.25726890563964844)"/>
<path d="M0 0 C6.79363479 -0.3569633 13.58483535 -0.60089396 20.38574219 -0.76904297 C22.6949291 -0.83916521 25.00350047 -0.9345045 27.31054688 -1.05615234 C45.96152308 -2.01447107 45.96152308 -2.01447107 51.0071106 1.33068848 C54.71784739 5.01836877 56.80935747 9.30250661 59 14 C60.19729655 15.85430385 61.42093542 17.69230092 62.6875 19.5 C63.32945313 20.47195313 63.97140625 21.44390625 64.6328125 22.4453125 C69.66538822 30.03667339 74.8489215 37.52842769 79.98583984 45.04931641 C81.98863732 47.98335401 83.98891166 50.91909438 85.98828125 53.85546875 C92.62159011 63.59643738 99.26619251 73.32813559 106 83 C106.495 81.02 106.495 81.02 107 79 C114.59 79 122.18 79 130 79 C130.33 98.14 130.66 117.28 131 137 C140.00869536 123.08763253 140.00869536 123.08763253 148.9375 109.125 C149.45505859 108.31160156 149.97261719 107.49820313 150.50585938 106.66015625 C151.32086914 105.37818359 151.32086914 105.37818359 152.15234375 104.0703125 C152.75449707 103.17320557 153.35665039 102.27609863 153.97705078 101.35180664 C155.63022584 98.61267552 156.90371279 96.02593094 158.19091797 93.11499023 C164.27627166 80.35338285 164.27627166 80.35338285 170.71481323 78.01330566 C178.53890483 76.62438101 186.36969701 77.26755665 194.25 77.8125 C196.65200895 77.90792582 199.05438257 77.99459732 201.45703125 78.07226562 C207.31271178 78.28052021 213.15464845 78.5972055 219 79 C224.47216179 89.28339686 229.88885544 99.56457901 234.8125 110.125 C237.97890016 116.89615322 241.27531906 123.51648091 245 130 C245.44279297 129.05906494 245.88558594 128.11812988 246.34179688 127.14868164 C253.89453125 111.09912109 261.44726562 95.04956055 269 79 C277.25 79 285.5 79 294 79 C288.6840976 89.66825671 283.32152774 100.31020967 277.88305664 110.91650391 C277.09004159 112.46431641 276.29836057 114.01281317 275.50805664 115.56201172 C274.72112236 117.104566 273.93240249 118.64621064 273.141922 120.18695068 C272.34374695 121.74533475 271.55088053 123.30644872 270.76322937 124.87017822 C268.67940189 128.95753916 266.48473667 132.8724475 263.9855957 136.72167969 C255.3509585 150.33654075 254.47804114 161.85792343 254.8125 177.75 C254.81947965 180.01952136 254.82146027 182.28906378 254.81835938 184.55859375 C254.81235853 190.04336243 254.90797223 195.51257687 255 201 C247.74 201 240.48 201 233 201 C233.07863281 197.68066406 233.15726563 194.36132812 233.23828125 190.94140625 C234.06596532 157.97282527 234.06596532 157.97282527 220.77539062 128.58886719 C217.78406879 124.22693419 215.40671286 119.5451493 212.9375 114.875 C211.96452856 113.09770333 210.9892658 111.32165911 210.01171875 109.546875 C204.85869819 100.11075791 199.93774013 90.55000221 195 81 C191.62049938 84.22271966 188.89604458 87.38655612 186.375 91.3125 C185.68792969 92.36566406 185.00085938 93.41882813 184.29296875 94.50390625 C183.92478027 95.06867676 183.5565918 95.63344727 183.17724609 96.21533203 C181.06000425 99.42500393 178.87149338 102.58554037 176.6875 105.75 C175.99563599 106.75426025 175.99563599 106.75426025 175.28979492 107.77880859 C173.86054461 109.85300966 172.43031194 111.9265309 171 114 C162.41077814 126.43953578 162.41077814 126.43953578 154 139 C156.95560064 144.40796952 160.2921954 149.34840131 163.9375 154.3125 C165.10295802 155.91269237 166.26831992 157.51295475 167.43359375 159.11328125 C168.02640137 159.92490723 168.61920898 160.7365332 169.22998047 161.57275391 C172.00042931 165.37189907 174.74984085 169.1861554 177.5 173 C180.89424024 177.70515508 184.29375159 182.40628804 187.70703125 187.09765625 C188.3103125 187.92845703 188.91359375 188.75925781 189.53515625 189.61523438 C190.70120662 191.22079603 191.86911409 192.82501094 193.0390625 194.42773438 C193.55855469 195.14380859 194.07804688 195.85988281 194.61328125 196.59765625 C195.07516846 197.23195557 195.53705566 197.86625488 196.01293945 198.51977539 C197 200 197 200 197 201 C188.12361601 203.17168257 177.55851199 205.17584865 169 201 C158.6757892 192.87518617 152.32101998 177.99346778 146 167 C141.05 159.74 136.1 152.48 131 145 C130.67 163.48 130.34 181.96 130 201 C122.74 201 115.48 201 108 201 C107.67 198.36 107.34 195.72 107 193 C98.41527667 205.20977283 89.91140546 217.47037025 81.50097656 229.80078125 C73.9521253 240.86129721 66.3247258 251.86631029 58.65698242 262.84472656 C58.01092041 263.77124023 57.3648584 264.69775391 56.69921875 265.65234375 C56.13033936 266.46695068 55.56145996 267.28155762 54.9753418 268.12084961 C53.0172173 270.83383597 53.0172173 270.83383597 51.84680176 273.30580139 C48.45714961 279.54357252 48.45714961 279.54357252 44.49839783 280.78358459 C41.38026423 281.04311449 38.3838989 281.01279181 35.2578125 280.87890625 C34.13430389 280.86617172 33.01079529 280.85343719 31.85324097 280.84031677 C28.27493797 280.79004896 24.70176182 280.67715829 21.125 280.5625 C18.6953859 280.5173453 16.26569206 280.47628247 13.8359375 280.43945312 C7.88888439 280.34037961 1.94480836 280.18991118 -4 280 C-3.26321564 276.75771647 -2.27261501 274.65666795 -0.33203125 271.9375 C0.22419922 271.15117188 0.78042969 270.36484375 1.35351562 269.5546875 C1.95873047 268.71164062 2.56394531 267.86859375 3.1875 267 C4.47281538 265.18761284 5.75796715 263.37510965 7.04296875 261.5625 C7.70216309 260.63695312 8.36135742 259.71140625 9.04052734 258.7578125 C12.05045352 254.52156454 15.02453578 250.26048677 18 246 C19.16906287 244.32928154 20.33833428 242.658709 21.5078125 240.98828125 C22.08563477 240.16279785 22.66345703 239.33731445 23.25878906 238.48681641 C24.98182936 236.02595151 26.7056522 233.56563664 28.4296875 231.10546875 C34.63561076 222.24792374 40.82683281 213.38041071 47 204.5 C53.73469715 194.81180028 60.4930284 185.14044463 67.26464844 175.47802734 C69.0558685 172.92022155 70.84463439 170.36071448 72.6328125 167.80078125 C73.23335449 166.94194336 73.83389648 166.08310547 74.45263672 165.19824219 C75.63616058 163.50381928 76.81753339 161.80789155 77.99658203 160.11035156 C80.65736472 156.2900919 83.34624364 152.50903633 86.171875 148.80859375 C86.65237305 148.17034668 87.13287109 147.53209961 87.62792969 146.87451172 C88.51416359 145.70411527 89.41500799 144.54457611 90.33300781 143.39892578 C91.67169941 141.7052359 91.67169941 141.7052359 93 139 C92.19238849 135.1093168 89.93659709 132.32170302 87.5625 129.1875 C84.23515223 124.70722921 81.0214165 120.17148844 77.875 115.5625 C73.62400426 109.34604652 69.32605427 103.1644509 65 97 C60.84792336 91.08077268 56.71236411 85.15161269 52.625 79.1875 C48.21412719 72.7522065 43.76953294 66.34090794 39.3125 59.9375 C38.29482544 58.47521973 38.29482544 58.47521973 37.2565918 56.98339844 C33.82197852 52.04969981 30.38484317 47.11777156 26.9453125 42.1875 C23.6309044 37.43498403 20.32407194 32.67728045 17.02294922 27.91552734 C15.6308424 25.90918657 14.23650815 23.90439006 12.84033203 21.90087891 C10.71991023 18.85535482 8.60892261 15.80349437 6.5 12.75 C5.84636475 11.81470459 5.19272949 10.87940918 4.51928711 9.91577148 C3.92510986 9.05153564 3.33093262 8.1872998 2.71875 7.296875 C2.19216797 6.53729492 1.66558594 5.77771484 1.12304688 4.99511719 C0 3 0 3 0 0 Z " fill="#B00B0B" transform="translate(23,260)"/>
<path d="M0 0 C7.26 0 14.52 0 22 0 C22.33 19.14 22.66 38.28 23 58 C32.00869536 44.08763253 32.00869536 44.08763253 40.9375 30.125 C41.45505859 29.31160156 41.97261719 28.49820312 42.50585938 27.66015625 C43.04919922 26.80550781 43.59253906 25.95085937 44.15234375 25.0703125 C44.75449707 24.17320557 45.35665039 23.27609863 45.97705078 22.35180664 C47.63022584 19.61267552 48.90371279 17.02593094 50.19091797 14.11499023 C56.27627166 1.35338285 56.27627166 1.35338285 62.71481323 -0.98669434 C70.53890483 -2.37561899 78.36969701 -1.73244335 86.25 -1.1875 C88.65200895 -1.09207418 91.05438257 -1.00540268 93.45703125 -0.92773438 C99.31271178 -0.71947979 105.15464845 -0.4027945 111 0 C116.47216179 10.28339686 121.88885544 20.56457901 126.8125 31.125 C129.97890016 37.89615322 133.27531906 44.51648091 137 51 C137.44279297 50.05906494 137.88558594 49.11812988 138.34179688 48.14868164 C145.89453125 32.09912109 153.44726562 16.04956055 161 0 C169.25 0 177.5 0 186 0 C180.6840976 10.66825671 175.32152774 21.31020967 169.88305664 31.91650391 C169.09004159 33.46431641 168.29836057 35.01281317 167.50805664 36.56201172 C166.72112236 38.104566 165.93240249 39.64621064 165.141922 41.18695068 C164.34374695 42.74533475 163.55088053 44.30644872 162.76322937 45.87017822 C160.67940189 49.95753916 158.48473667 53.8724475 155.9855957 57.72167969 C147.3509585 71.33654075 146.47804114 82.85792343 146.8125 98.75 C146.81947965 101.01952136 146.82146027 103.28906378 146.81835938 105.55859375 C146.81235853 111.04336243 146.90797223 116.51257687 147 122 C139.74 122 132.48 122 125 122 C125.07863281 118.68066406 125.15726562 115.36132812 125.23828125 111.94140625 C126.06596532 78.97282527 126.06596532 78.97282527 112.77539062 49.58886719 C109.78406879 45.22693419 107.40671286 40.5451493 104.9375 35.875 C103.96452856 34.09770333 102.9892658 32.32165911 102.01171875 30.546875 C96.85869819 21.11075791 91.93774013 11.55000221 87 2 C83.62049938 5.22271966 80.89604458 8.38655612 78.375 12.3125 C77.68792969 13.36566406 77.00085938 14.41882813 76.29296875 15.50390625 C75.92478027 16.06867676 75.5565918 16.63344727 75.17724609 17.21533203 C73.06000425 20.42500393 70.87149338 23.58554037 68.6875 26.75 C68.22625732 27.41950684 67.76501465 28.08901367 67.28979492 28.77880859 C65.86054461 30.85300966 64.43031194 32.9265309 63 35 C54.41077814 47.43953578 54.41077814 47.43953578 46 60 C48.95560064 65.40796952 52.2921954 70.34840131 55.9375 75.3125 C57.10295802 76.91269237 58.26831992 78.51295475 59.43359375 80.11328125 C60.02640137 80.92490723 60.61920898 81.7365332 61.22998047 82.57275391 C64.00042931 86.37189907 66.74984085 90.1861554 69.5 94 C72.89424024 98.70515508 76.29375159 103.40628804 79.70703125 108.09765625 C80.3103125 108.92845703 80.91359375 109.75925781 81.53515625 110.61523438 C82.70120662 112.22079603 83.86911409 113.82501094 85.0390625 115.42773438 C85.55855469 116.14380859 86.07804687 116.85988281 86.61328125 117.59765625 C87.07516846 118.23195557 87.53705566 118.86625488 88.01293945 119.51977539 C89 121 89 121 89 122 C80.12361601 124.17168257 69.55851199 126.17584865 61 122 C50.6757892 113.87518617 44.32101998 98.99346778 38 88 C30.575 77.11 30.575 77.11 23 66 C22.67 84.48 22.34 102.96 22 122 C14.74 122 7.48 122 0 122 C0 81.74 0 41.48 0 0 Z " fill="#D6D6D5" transform="translate(131,339)"/>
<path d="M0 0 C54.07559395 0 54.07559395 0 65 9 C72.60001564 17.94026736 73.80427259 26.63676219 73.19970703 38.01220703 C72.50602422 44.91681027 68.64950925 50.11205438 64 55 C63.01 55.66 62.02 56.32 61 57 C61.65226562 57.3403125 62.30453125 57.680625 62.9765625 58.03125 C70.71719185 62.3239884 76.34266865 67.33374821 79 76 C80.20298386 87.04472848 80.07010761 97.99023863 73.38671875 107.23046875 C64.03491111 118.6143765 53.7575952 120.1553006 39 122 C26.13 122 13.26 122 0 122 C0 81.74 0 41.48 0 0 Z " fill="#D4D5D5" transform="translate(329,339)"/>
<path d="M0 0 C3.39656201 1.698281 4.54959393 2.30899398 6.8125 4.984375 C7.32458008 5.58282227 7.83666016 6.18126953 8.36425781 6.79785156 C8.90405273 7.44206055 9.44384766 8.08626953 10 8.75 C10.5681543 9.41741211 11.13630859 10.08482422 11.72167969 10.77246094 C12.90356994 12.16126383 14.08290699 13.55224331 15.25976562 14.9453125 C16.89737823 16.8788349 18.54686627 18.80119331 20.203125 20.71875 C24.768999 26.00730639 29.28809849 31.32127578 33.6875 36.75 C36.53458501 40.2588399 39.45812552 43.65866637 42.5 47 C50.0761189 55.32714286 56.96952504 64.2119063 64 73 C64 49.57 64 26.14 64 2 C71.26 2 78.52 2 86 2 C86 42.92 86 83.84 86 126 C85.01 126 84.02 126 83 126 C81.16015625 124.05078125 81.16015625 124.05078125 79.0625 121.3125 C75.54211728 116.85334856 71.89236287 112.63687044 68 108.5 C64.36959319 104.62620126 60.88243389 100.71089446 57.5625 96.5625 C54.05356313 92.18747345 50.34150773 88.07984341 46.5 84 C41.90919298 79.12338398 37.53959833 74.15528864 33.390625 68.890625 C29.7362429 64.47192768 25.83588102 60.26209002 22 56 C21.67 78.44 21.34 100.88 21 124 C14.07 124 7.14 124 0 124 C0 83.08 0 42.16 0 0 Z " fill="#D5D6D6" transform="translate(595,337)"/>
<path d="M0 0 C2.76988258 3.42407595 5.37051558 6.8874876 7.85229492 10.52197266 C8.90791049 12.06655301 9.97674771 13.60214817 11.0559082 15.13037109 C14.49046828 20.05939303 17.63989263 25.05949011 20.56730652 30.3009491 C28.84820656 46.91890747 28.84820656 46.91890747 42.39160156 58.38427734 C48.17486796 59.2683487 53.64726614 58.76420969 59.44140625 58.21875 C64.60484899 57.7610487 64.60484899 57.7610487 68.15234375 59.90625 C70.03199457 62.51045895 71.54143276 65.08855693 72.93408203 67.97900391 C75.09792022 72.08167283 77.98183239 75.74313904 80.6875 79.5 C81.90302776 81.23728732 83.11522941 82.97690622 84.32421875 84.71875 C87.87279844 89.81953986 91.43477687 94.91083447 95 100 C98.63131 105.18582323 102.26096778 110.37278817 105.88671875 115.5625 C106.84094727 116.92761719 106.84094727 116.92761719 107.81445312 118.3203125 C109.03375658 120.06471744 110.25253406 121.80949019 111.47070312 123.5546875 C112.02048828 124.34101562 112.57027344 125.12734375 113.13671875 125.9375 C113.61842529 126.62714844 114.10013184 127.31679688 114.59643555 128.02734375 C115.57830956 129.40733019 116.61095395 130.75194333 117.67895508 132.06640625 C119 134 119 134 119 137 C111.92169694 137.38229702 104.84607046 137.643741 97.75976562 137.82397461 C95.35348091 137.8991306 92.94787512 138.00129972 90.54394531 138.1315918 C71.13114119 139.15691596 71.13114119 139.15691596 65.9781189 135.60720825 C62.67963722 132.14351902 60.65499716 128.16818384 58.7935791 123.7975769 C57.78902868 121.522118 56.47632255 119.59626124 55.00390625 117.59765625 C54.59672363 117.00686279 54.18954102 116.41606934 53.77001953 115.80737305 C53.17229736 114.94366089 53.17229736 114.94366089 52.5625 114.0625 C51.63409281 112.71616085 50.70570804 111.36980623 49.77734375 110.0234375 C49.3169873 109.35666992 48.85663086 108.68990234 48.38232422 108.00292969 C46.12608386 104.73373225 43.87540995 101.46071252 41.625 98.1875 C41.17648682 97.53531494 40.72797363 96.88312988 40.26586914 96.21118164 C36.11444954 90.1720203 31.97753205 84.12297138 27.84082031 78.07373047 C23.47672532 71.69334589 19.10146795 65.32072865 14.71875 58.953125 C12.77770216 56.13262879 10.84094958 53.30922938 8.90625 50.484375 C8.39916504 49.74469482 7.89208008 49.00501465 7.36962891 48.24291992 C6.39190119 46.81657458 5.41498008 45.3896759 4.43896484 43.9621582 C2.39834864 40.83789866 2.39834864 40.83789866 0 38 C-0.08861992 35.1883662 -0.11522355 32.40141745 -0.09765625 29.58984375 C-0.0962413 28.74780899 -0.09482635 27.90577423 -0.09336853 27.03822327 C-0.08775263 24.33794665 -0.07519748 21.63775172 -0.0625 18.9375 C-0.05748705 17.11132932 -0.05292379 15.28515734 -0.04882812 13.45898438 C-0.03777804 8.97262458 -0.02050279 4.48632616 0 0 Z " fill="#7E0505" transform="translate(153,403)"/>
<path d="M0 0 C-1.23945073 3.34862761 -2.62458325 6.14947476 -4.6953125 9.0546875 C-5.23800781 9.82232422 -5.78070313 10.58996094 -6.33984375 11.38085938 C-6.92894531 12.20392578 -7.51804687 13.02699219 -8.125 13.875 C-9.39890035 15.67415153 -10.67231906 17.47364417 -11.9453125 19.2734375 C-12.61079102 20.21155273 -13.27626953 21.14966797 -13.96191406 22.11621094 C-17.33644084 26.89099655 -20.66652112 31.69651291 -24 36.5 C-27.94468615 42.17412513 -31.89141515 47.8468244 -35.84375 53.515625 C-36.45395996 54.39250977 -37.06416992 55.26939453 -37.69287109 56.17285156 C-38.88289468 57.86994546 -40.08352116 59.55966139 -41.29541016 61.24121094 C-43.73379828 64.63562519 -46.04914524 67.88558136 -47.8046875 71.6875 C-49.6274722 75.24238359 -50.55892199 76.91576982 -54 79 C-61.92587557 80.2842988 -70.03688053 79.6695238 -78 79 C-78.26393555 79.71808838 -78.52787109 80.43617676 -78.79980469 81.17602539 C-80.03316696 84.0780395 -81.48989063 86.5385282 -83.203125 89.18359375 C-83.84725342 90.18334229 -84.49138184 91.18309082 -85.1550293 92.21313477 C-85.84636963 93.27717529 -86.53770996 94.34121582 -87.25 95.4375 C-88.33192482 97.11483335 -89.41384284 98.79217117 -90.49516296 100.46989441 C-91.60259967 102.18735396 -92.71168679 103.90374047 -93.82080078 105.62011719 C-97.13368854 110.75227385 -100.4106572 115.9072829 -103.6875 121.0625 C-104.25049805 121.94671631 -104.81349609 122.83093262 -105.39355469 123.74194336 C-106.1945459 125.00083374 -106.1945459 125.00083374 -107.01171875 126.28515625 C-107.76654541 127.47069092 -107.76654541 127.47069092 -108.53662109 128.68017578 C-110.39980657 131.63379413 -112.22104176 134.61256903 -114.03051758 137.59936523 C-114.35044678 138.06157471 -114.67037598 138.52378418 -115 139 C-115.33 139 -115.66 139 -116 139 C-118.9381754 95.71992295 -118.9381754 95.71992295 -105.53515625 80.18359375 C-104.42744873 78.95358643 -104.42744873 78.95358643 -103.29736328 77.69873047 C-99.38088642 73.09801472 -96.14390934 68.03140048 -92.82254028 62.99536133 C-90.83234593 59.99087333 -88.80099434 57.01449737 -86.7734375 54.03515625 C-85.96955896 52.8505369 -85.16584694 51.66580452 -84.36230469 50.48095703 C-82.08919072 47.13095154 -79.81445765 43.7820503 -77.5390625 40.43359375 C-76.8287085 39.38268555 -76.11835449 38.33177734 -75.38647461 37.24902344 C-73.96678904 35.17311251 -72.52486941 33.11222699 -71.06079102 31.06738281 C-67.4858554 26.02166077 -64.59808549 21.33050767 -62.36328125 15.55078125 C-51.84745153 -8.8253506 -22.36078696 -1.84186743 0 0 Z " fill="#710404" transform="translate(269,260)"/>
<path d="M0 0 C21.12 0 42.24 0 64 0 C64 6.27 64 12.54 64 19 C50.14 19 36.28 19 22 19 C22 28.57 22 38.14 22 48 C32.89 48 43.78 48 55 48 C55 53.94 55 59.88 55 66 C44.11 66 33.22 66 22 66 C22 77.88 22 89.76 22 102 C36.85 102 51.7 102 67 102 C67 108.6 67 115.2 67 122 C44.89 122 22.78 122 0 122 C0 81.74 0 41.48 0 0 Z " fill="#D6D6D6" transform="translate(506,339)"/>
<path d="M0 0 C7.92 0 15.84 0 24 0 C29.99896243 11.2154515 35.76056943 22.47385939 41.15551758 33.99243164 C43.88717309 39.79649504 46.80433377 45.43733212 50 51 C50.44279297 50.05906494 50.88558594 49.11812988 51.34179688 48.14868164 C58.89453125 32.09912109 66.44726562 16.04956055 74 0 C82.25 0 90.5 0 99 0 C93.6840976 10.66825671 88.32152774 21.31020967 82.88305664 31.91650391 C82.09004159 33.46431641 81.29836057 35.01281317 80.50805664 36.56201172 C79.72112236 38.104566 78.93240249 39.64621064 78.141922 41.18695068 C77.34374695 42.74533475 76.55088053 44.30644872 75.76322937 45.87017822 C73.67940189 49.95753916 71.48473667 53.8724475 68.9855957 57.72167969 C60.3509585 71.33654075 59.47804114 82.85792343 59.8125 98.75 C59.81947965 101.01952136 59.82146027 103.28906378 59.81835938 105.55859375 C59.81235853 111.04336243 59.90797223 116.51257687 60 122 C52.74 122 45.48 122 38 122 C38.07863281 118.68066406 38.15726562 115.36132812 38.23828125 111.94140625 C39.06596532 78.97282527 39.06596532 78.97282527 25.77539062 49.58886719 C22.78410133 45.22698164 20.40635373 40.54529287 17.9375 35.875 C16.96466651 34.09502559 15.9894042 32.31637649 15.01171875 30.5390625 C11.70022015 24.47291446 8.46234032 18.36915266 5.25 12.25 C4.4609729 10.75702393 4.4609729 10.75702393 3.65600586 9.23388672 C3.17655518 8.31623535 2.69710449 7.39858398 2.203125 6.453125 C1.77676758 5.64004883 1.35041016 4.82697266 0.91113281 3.98925781 C0 2 0 2 0 0 Z " fill="#DDDDDD" transform="translate(218,339)"/>
<path d="M0 0 C26.07 0 52.14 0 79 0 C79 6.6 79 13.2 79 20 C69.76 20 60.52 20 51 20 C51 53.66 51 87.32 51 122 C43.41 122 35.82 122 28 122 C28 88.34 28 54.68 28 20 C18.76 20 9.52 20 0 20 C0 13.4 0 6.8 0 0 Z " fill="#DEDEDE" transform="translate(699,339)"/>
<path d="M0 0 C7.26 0 14.52 0 22 0 C22 33.99 22 67.98 22 103 C33.88 103 45.76 103 58 103 C58 109.27 58 115.54 58 122 C38.86 122 19.72 122 0 122 C0 81.74 0 41.48 0 0 Z " fill="#D0D0D0" transform="translate(429,339)"/>
<path d="M0 0 C3.465 -0.0825 6.93 -0.165 10.5 -0.25 C12.11358398 -0.30462402 12.11358398 -0.30462402 13.75976562 -0.36035156 C21.47195651 -0.4485722 26.85307229 1.01041868 32.5 6.375 C35.20866026 12.92092897 35.36700754 20.68182763 32.65625 27.26171875 C30.32736406 31.11207026 27.52835308 34.15185247 23.12011719 35.63061523 C20.71164975 36.05023882 18.46058141 36.11256452 16.015625 36.09765625 C15.17290039 36.09515869 14.33017578 36.09266113 13.46191406 36.09008789 C12.40198242 36.08098389 11.34205078 36.07187988 10.25 36.0625 C6.8675 36.041875 3.485 36.02125 0 36 C0 24.12 0 12.24 0 0 Z " fill="#013529" transform="translate(351,407)"/>
<path d="M0 0 C19.9382716 0 19.9382716 0 26 5 C30.02298022 10.34287935 29.62224065 15.57302126 29 22 C27.83296133 27.08430802 25.37840101 30.15403934 21 33 C18.23434618 33.92188461 16.61716298 34.11785222 13.76953125 34.09765625 C12.68442261 34.09390991 12.68442261 34.09390991 11.57739258 34.09008789 C10.20877075 34.07643188 10.20877075 34.07643188 8.8125 34.0625 C5.904375 34.041875 2.99625 34.02125 0 34 C0 22.78 0 11.56 0 0 Z " fill="#02362A" transform="translate(351,356)"/>
</svg>
